<?xml version="1.0" encoding="UTF-8" standalone="no"?>
<svg width="58px" height="122px" viewBox="0 0 58 122" version="1.1" xmlns="http://www.w3.org/2000/svg" xmlns:xlink="http://www.w3.org/1999/xlink" xmlns:sketch="http://www.bohemiancoding.com/sketch/ns">
    <title>Slice 1</title>
    <description>Created with Sketch (http://www.bohemiancoding.com/sketch)</description>
    <defs></defs>
    <g id="Page-1" stroke="none" stroke-width="1" fill="none" fill-rule="evenodd" sketch:type="MSPage">
        <path d="M56.3407211,76.3292894 C54.0061544,76.4253978 52.1153482,76.5215062 49.8772511,75.9832992 C50.0701905,75.156767 50.0701905,74.4071215 50.1473663,73.6382543 C49.6843117,72.5810619 49.9544269,71.3893178 49.8772511,70.236017 C49.1826693,70.3129037 48.7196147,70.9087758 48.0636207,71.0817709 C47.5812722,71.139436 47.0603358,71.5238695 46.6165752,71.2739877 C47.002454,69.8515834 47.9285631,68.6213959 49.0476117,67.4680952 C49.279139,67.0644399 48.931848,66.7184497 48.623145,66.4301245 C47.3497449,65.2191587 45.9605812,66.699228 44.745063,66.4301245 C44.7257691,65.2191587 45.0344721,64.3157397 45.0151782,63.1816606 C43.2980175,62.1052466 41.4457992,63.5276509 40.0180476,64.5656216 C37.7992445,65.1422719 35.9277323,67.0259965 35.2910322,69.1980463 C34.4999807,69.755475 33.6317534,70.6204506 33.6896352,71.5623129 C34.1526898,72.3119584 33.1686988,72.2542934 33.0722291,72.8693871 C32.8792897,72.6002836 32.5898806,72.5041752 32.3004715,72.4657318 C31.5480078,72.4849535 30.9306017,71.6584213 30.3517835,71.2163227 L31.0463654,68.1600756 C31.1235411,66.0841342 28.9433259,64.77706 29.4642623,62.7011186 L29.5221441,62.7011186 C31.2007169,64.181188 33.2651685,65.2768237 35.2138565,66.3724594 C36.3907868,65.0077202 38.1079475,64.5271782 38.9761748,62.9125571 C39.6514627,61.8553647 38.7832354,60.5290689 39.4585233,59.3757681 C39.8251082,58.2032456 38.8218233,57.6073736 38.8989991,56.5501812 C38.5324142,55.8774224 38.281593,55.1854419 37.7220687,54.82023 L38.1465354,54.3204664 C38.1465354,54.3204664 40.0566355,57.2998267 40.7126295,58.2801323 C41.2528598,58.0302505 41.4457992,55.6275406 41.6194447,55.2238853 C42.159675,56.2810777 42.4490841,57.6842603 43.7031902,58.2032456 C46.6165752,57.8764771 49.9737208,60.6828423 52.7327543,58.4723491 C55.4339059,56.319521 56.379309,53.2440523 56.6880121,50.2454703 C56.7265999,49.5150465 56.9581272,48.5539625 56.4757787,47.9580904 C53.2343967,49.303608 50.6297148,48.8807311 47.2339813,48.8615094 C48.0443268,46.7663463 48.8160844,44.5942965 50.4946572,42.9027887 C51.2471209,41.7110446 53.1765149,41.2305026 53.0800452,39.6543249 C52.8099301,38.866236 51.9609967,38.9239011 51.4014724,38.5586891 C49.4334905,38.7509059 46.9638661,38.6547975 45.0151782,38.9623444 C41.8123841,39.5389948 38.0500657,41.4996061 37.4519536,45.0556168 L36.7573717,44.6327399 C37.3747778,42.768237 37.953596,40.7115173 38.8989991,38.9046794 C39.554993,37.3477233 37.5677172,37.6360485 36.8924293,37.0209548 C35.5418535,36.4250827 35.1559747,38.0397038 34.0369261,38.2126989 C32.6091745,38.0589255 31.9145927,39.3852214 31.2007169,40.3463053 C30.506135,40.5385221 29.4642623,40.6730739 29.1748531,41.5188278 C28.8082683,42.3261383 28.7696804,43.4217741 28.4802713,44.0945329 C28.3259198,43.5178825 28.1522743,37.30928 27.8628652,34.7527966 C28.3452137,34.0992595 29.1555592,33.6571609 29.9466108,33.4265007 C30.3710774,33.7724909 30.7955441,34.1953679 31.2585987,34.4644714 C32.0689442,34.8873484 32.9371715,34.2530329 33.4774018,33.8493777 C33.7861049,34.2530329 34.0176322,34.4644714 34.2491595,34.8873484 C35.5418535,35.9445407 37.1625444,36.6557429 38.6867657,36.1367575 C39.554993,36.0406491 40.6354537,35.0987868 41.2721537,35.8484323 C41.7737962,36.5019694 42.159675,36.0790925 42.796375,35.9829841 C43.5102508,35.5408855 43.6453084,34.5413581 44.5907115,34.6759099 C47.3570766,35.5239704 50.7414267,31.747487 51.1892391,28.1789822 C50.9577118,25.910824 50.1859542,23.6811092 49.607136,21.4513944 C48.7389086,22.7776902 47.330451,24.7383016 45.7869358,25.0650701 C45.729054,24.2577596 46.1728146,23.8541043 45.9219934,23.0467938 C45.3045873,23.0083504 43.3944872,24.4499764 42.8542568,24.5076414 C43.519126,20.1114511 40.230281,16.7613046 40.230281,16.7613046 C39.6900506,18.7795809 38.0307718,20.3557586 36.7573717,21.8742713 C36.5258444,20.7209705 36.2171414,19.3946746 35.1559747,18.7603592 C34.6543322,19.2793446 34.7700958,20.1250985 34.1719837,20.5671971 C34.1719837,20.5671971 31.6251836,17.7608319 31.5480078,17.933827 C31.7216533,20.0674334 30.7569563,21.6243895 30.2167259,23.5273357 C28.2873319,25.5648338 27.4962803,28.3904207 28.4802713,31.0045691 C29.0397956,31.6196628 27.7609932,32.0736789 27.7486451,31.9143312 C27.3139526,26.2904522 26.901834,19.1809296 28.5400825,16.4724027 C29.2364008,15.3212163 30.0060361,14.1073673 31.3357745,14.0510477 C34.1918565,12.6732378 34.7648865,10.0725445 34.4974725,8.42601544 C34.4488517,8.12634946 34.3436998,7.88300299 33.9790443,8.1692138 C34.1141019,5.80494722 30.2167259,2.57570506 30.2167259,2.57570506 C30.0430805,4.2287695 29.541438,6.01638569 28.904738,7.47723334 C28.5574471,7.40034662 28.4416834,7.6117851 28.268038,7.82322357 C27.8821591,9.09185442 28.1136864,10.3797069 28.3452137,11.6291161 C28.4995652,12.3403183 29.232735,12.8016386 29.2520289,13.5705058 C29.0590895,14.454703 28.5960349,15.0505751 27.920747,15.7233339 C27.889105,14.3334142 27.2578072,12.3207121 26.3965257,13.3014022 C25.7405318,14.0126044 25.9141772,15.2235702 25.991353,16.0693241 C25.026656,15.3773436 24.9301863,14.1279345 25.007362,13.013077 C26.7631106,11.2446825 27.870004,9.02688514 28.0629434,6.5474807 C28.0438424,6.27837719 27.5734561,5.88183394 27.3033409,6.03560737 C27.3033409,6.03560737 28.3041176,2.17454861 27.4383985,0.288325193 C26.8595803,1.46084764 24.5250135,1.88372459 24.5250135,1.88372459 C24.370662,1.34551757 24.6021893,0.345990232 24.042665,0 C22.7885589,0.788088861 21.6309225,1.99905467 20.2803467,2.36426658 C18.2930708,3.0946904 18.6789496,5.26674019 18.3509526,6.78525288 C18.215895,6.59303608 17.8082141,6.816392 17.6926434,6.83580589 C17.8660959,7.83514101 18.563186,8.84197259 18.891183,9.68772648 C19.1227102,10.3220419 19.4892951,11.0140224 20.0874073,11.3600126 C21.8238619,12.3403183 22.5763256,14.0318261 23.9076074,15.4350087 C24.6214832,17.0880731 24.7951287,18.7795809 24.7951287,20.6248621 C24.4092499,19.8944383 23.9847832,19.1063495 23.2709074,18.5489207 C22.441268,18.3759256 22.7306771,19.7214432 22.3640922,20.2788719 C21.0906922,19.3562313 19.8172921,18.0491571 18.2737769,17.5878368 C17.907192,17.5301717 17.5213132,17.0880731 17.1547283,17.453285 C17.0775526,17.7031669 17.0003768,18.1260438 17.2319041,18.3374823 C17.6563708,19.1832362 17.0775526,19.8944383 16.6723798,20.5671971 C14.0869918,19.7406649 11.5208977,20.9708524 9.16703703,22.0088231 C9.16703703,22.3163699 9.37927037,22.4893651 9.59150372,22.7008035 C11.6559553,23.2197889 12.4855948,25.1996219 13.4117039,26.8526863 C13.4117039,26.8526863 8.23841968,24.4715046 8.27951577,25.8147156 C9.16703703,27.2563416 7.66210968,28.371199 7.58493392,29.7551599 C7.29552482,31.312116 7.93222485,32.926737 9.10915521,33.9070427 C10.4983189,35.4447771 12.4470069,35.4832204 14.1834615,36.1367575 C16.305795,36.7326296 18.6017738,36.1175358 19.9330557,34.5413581 C20.4539921,33.7148259 20.9749285,32.9844021 21.6116285,32.2539783 C22.250258,33.7944037 24.1628663,34.6922483 25.6440621,34.1184812 C25.9527651,36.886403 26.1649985,39.9042067 26.2614682,42.8451237 C25.2967711,41.864818 24.0233711,40.6538522 24.1005468,39.0392311 C22.8850286,37.8859304 20.9749285,37.8282653 19.4507072,37.0978415 C19.0455345,36.9632897 18.5245981,37.0209548 18.1966011,37.30928 C18.0808375,38.270364 18.0036617,40.4808571 18.0036617,40.4808571 C17.0775526,40.3463053 16.1321495,40.3463053 15.2253343,40.4808571 C14.2220494,40.0003151 13.1801766,39.6543249 12.1575978,39.2506696 C10.8841977,39.5197731 9.45644613,38.5779108 8.41457336,39.5966598 C7.44987634,39.9618718 6.19577022,40.2501969 5.15389744,40.4231921 C4.53649135,40.9229557 3.55250039,41.268946 3.61038221,42.2108083 C5.50118837,42.9988971 6.77458843,44.7288483 7.7199915,46.4395778 C7.99010667,46.785568 8.33739759,47.1892233 8.33739759,47.5544352 C8.16375213,47.5159918 4.20849436,47.2276666 2.56850944,46.6510162 C1.91251547,46.5549078 1.16005179,46.5356862 0.774172986,47.0546715 C0.947818449,48.4770758 -0.0554664479,49.7457066 0.00241537304,51.283441 C0.465469941,53.0133922 1.17934573,54.8586734 2.51062762,55.9927525 C3.73540695,60.0287285 7.54364489,60.8819789 12.8521796,59.4526548 C13.6432312,59.1066646 14.4535767,58.6261226 15.2253343,58.4146841 C15.2253343,60.6828423 16.6797115,62.4727651 18.2037399,64.0873862 L17.9264859,64.4310698 C17.2126101,64.181188 16.6530859,63.5468725 15.9199161,63.3930991 C14.5886343,62.8741138 13.2380584,63.9120844 12.099716,64.6425083 C11.2700765,65.0077202 10.5947886,64.181188 9.86161888,64.5656216 C7.41128846,64.3157397 4.74872469,64.181188 2.99297612,66.2955727 C2.87721248,66.5070112 2.72286096,66.8722231 2.99297612,67.0644399 C4.15061254,67.17977 5.07672168,67.4680952 5.90636111,68.2369623 C7.02540965,69.8131401 7.77787333,71.6391996 9.51432795,72.6579486 C7.12187935,73.3691508 4.71013681,74.2725697 2.43345185,75.0798803 C1.70028212,75.2528754 0.523351762,75.0222152 0.0795911344,75.7718607 C2.22121851,77.3672601 2.5492155,80.0390736 4.24708225,81.6536947 C7.00611571,84.4792816 11.3472523,83.6911927 14.4535767,82.3456751 C14.993807,82.9223255 15.630507,83.191429 15.977798,83.9410745 C14.9552191,84.4216165 13.9133463,85.171262 12.9872372,86.0170159 C10.2089098,88.4773909 9.70726736,92.7253821 6.25365204,94.6091067 C6.08000658,94.8013235 5.73271565,95.0319836 5.90636111,95.3010871 C6.89035207,95.666299 7.6235218,95.4740822 8.6268067,95.8392942 C11.2700765,96.5120529 13.2187645,99.5106349 16.1128555,98.9532062 C17.5020193,98.3188908 18.7754193,97.5115803 19.5857648,96.1852844 C21.4379831,93.0713723 22.769265,89.6499133 24.2548984,86.4398929 C24.7951287,84.9598235 23.5796105,84.0564046 23.4831408,82.7685521 C24.1198408,81.8459115 25.026656,80.8656058 25.8370015,80.2120687 L26.5315833,81.1731527 C26.5508773,81.7498031 26.7052288,82.2495667 27.0332258,82.6916654 C25.3932408,84.4216165 24.7565408,86.9012132 24.8723045,89.130928 C25.335359,92.2640618 27.7856894,94.589885 29.6572017,96.9541516 C29.9659047,98.1458957 30.7569563,111.255081 30.6990744,116.541043 C30.4868411,119.097526 33.0529352,120.462266 34.5964504,122 C33.110817,113.86923 32.5898806,104.95037 32.3776472,96.4736096 C34.0562201,93.9171262 35.6190292,91.3221995 35.8505565,88.169844 C36.8499826,89.0411628 44.6134783,95.4973405 47.5233904,93.2251457 C48.314442,91.4759729 47.967151,89.2654798 48.3530298,87.3433118 C50.0894845,87.4970852 51.3821785,87.0549866 53.0028695,86.4975579 C56.3021333,84.1140696 57.7684727,80.1159603 58,76.0601859 C57.3633,75.7334174 56.9195393,76.3485111 56.3407211,76.3292894 C56.3407211,76.3292894 56.9195393,76.3485111 56.3407211,76.3292894 L56.3407211,76.3292894 L56.3407211,76.3292894 Z M45.467016,25.5965293 C45.8593094,25.4403471 48.5680022,23 48.5680022,23 C48.5680022,23 48.7678851,24.0038612 48.7962796,24.3925597 C48.9330219,26.2741649 49.4110595,28.4515401 48.1570281,29.8915401 C47.1058685,31.1862907 45.8955499,31.844013 45,32 C45.6538224,29.989154 45.4109741,27.7830803 45.467016,25.5965293 C45.467016,25.5965293 45.4109741,27.7830803 45.467016,25.5965293 L45.467016,25.5965293 L45.467016,25.5965293 Z M45,24 C43.0317726,27.0104825 43.5652174,30.8402735 41.4866221,33.8126486 C40.2173913,35.1082992 38.2307692,36.4230036 36.5936455,35.8704467 C35.5635452,35.489373 34.5150502,35.0320845 34,33.9460244 C35.0301003,34.4961043 36.5671572,35.2068068 37.7979431,34.6228113 C37.973796,34.5393562 37.826087,34.2889907 37.5869565,34.2889907 C36.5200669,34.5938497 35.1772575,34.1175075 34.4046823,33.3934675 C35.1956522,33.7173801 37.9732441,33.4315748 38.1204013,33.2600917 C36.6374247,33.1718731 35.4899666,33.1457695 34.735786,32.6503737 C35.8026756,32.7456421 37.6605351,32.8409106 38.506689,31.8120115 C37.4765886,31.9834947 36.5016722,32.4217294 35.3244147,31.964441 C35.9130435,31.7929578 38.2307692,31.0689177 38.3043478,30.5163608 C37.9364548,30.6116292 35.9130435,31.1641861 35.3979933,31.0689177 C35.7107023,30.1733944 36.0050167,29.2397638 36.7959866,28.5919385 C39.7391304,27.7916836 42.3511706,25.7338855 45,24 C45,24 42.3511706,25.7338855 45,24 L45,24 L45,24 Z M37.9917406,25 C38.0151018,25.8376623 38.038463,26.5779221 37.314265,27.2402597 L36.0527588,28 C35.7724241,26.8701299 36.6367895,25.5064935 37.9917406,25 C37.9917406,25 36.6367895,25.5064935 37.9917406,25 L37.9917406,25 L37.9917406,25 Z M38.8360998,20.1927966 C39.3021257,19.4682203 39.9172798,18.8008475 40.2528185,18 C40.7934085,18.6483051 40.7374854,19.6779661 41.1848703,20.4025424 C41.9677938,21.8707627 42.2660503,23.7012712 41.7254603,25.2838983 C40.6815623,25.8559322 38.1650225,27 38.1650225,27 C38.6496894,26.2372881 38.3514329,24.845339 38.444638,24.0444915 C38.444638,23.815678 38.1650225,23.5677966 37.9599711,23.7775424 L36.1517907,25.5508475 C35.3502261,23.3008475 37.9413301,21.9851695 38.8360998,20.1927966 C38.8360998,20.1927966 37.9413301,21.9851695 38.8360998,20.1927966 L38.8360998,20.1927966 L38.8360998,20.1927966 Z M35.0162792,19 C35.6740747,20.2553191 36.626744,21.787234 35.4245661,23 C34.9255488,21.7021277 34.9935966,20.4042553 35.0162792,19 C35.0162792,19 34.9935966,20.4042553 35.0162792,19 L35.0162792,19 L35.0162792,19 Z M34.9955203,27.8885191 C35.0649297,29.8652246 34.3187786,31.4825291 33.3817517,33 C34.3014263,29.4658902 34.388188,24.9334443 33.0694094,21.4991681 L33,21 C34.388188,22.9567388 34.8393491,25.5124792 34.9955203,27.8885191 C34.9955203,27.8885191 34.8393491,25.5124792 34.9955203,27.8885191 L34.9955203,27.8885191 L34.9955203,27.8885191 Z M29.2922553,26.79647 C29.5455431,25.8872043 30.11057,25.094015 30.6950805,24.3008257 C31.2406236,22.5790247 31.9030689,20.8959158 32.019971,19 C34.416464,22.9659463 31.4744278,26.9899308 32.9357041,31.0526074 C32.877253,31.9425271 33.1695083,33.374137 32.1563567,33.9738654 C31.5718462,34.0705958 31.0263031,33.8964811 30.6950805,33.4902134 L30.2664394,32.8711389 C30.5586947,32.7744085 31.5523625,33.2387144 31.6108136,32.5809477 C30.7535315,32.2520644 29.5845105,32.0005653 29.3507063,30.9171849 C29.8767658,30.936531 30.4417926,31.7877585 30.8314663,31.18803 C30.0326352,30.5109172 29.1363858,29.717728 29,28.750424 C29.4870921,29.2727681 30.0910863,29.8531505 30.6950805,29.6596897 L30.6950805,29.3888446 C29.8767658,28.7117318 29.1753532,27.8218122 29.2922553,26.79647 C29.2922553,26.79647 29.1753532,27.8218122 29.2922553,26.79647 L29.2922553,26.79647 L29.2922553,26.79647 Z M28.78,32 C28.9,32.0691204 29,32.2246414 29,32.3801624 L28.1226,33 L28,32.8812856 L28.78,32 L28.78,32 L28.78,32 L28.78,32 Z M34,9 C33.982251,10.3504274 33.2012954,11.5811966 32.1541049,12.5042735 L31.0004204,13 C30.9826714,12.4188034 31.5328902,11.8034188 31.5151412,11.1025641 C32.2251008,10.3504274 33.1125504,9.51282051 34,9 C34,9 33.1125504,9.51282051 34,9 L34,9 L34,9 Z M30.1796374,4.95086705 C30.1415846,6.1849711 30.579192,7.78323699 30.5221128,9.03757225 C31.415593,8.34080925 31.1823292,6.11294798 30.579192,4 C31.7207766,5.35549133 33.2048366,6.81213873 32.9765197,8.87572254 C32.1774105,9.60404624 31.5305125,10.0693642 30.9216674,11 C30.3699015,10.150289 29.8561885,9.07803468 29,8.3699422 C29.3995546,7.23699422 29.5707923,5.94219653 30.1796374,4.95086705 C30.1796374,4.95086705 29.5707923,5.94219653 30.1796374,4.95086705 L30.1796374,4.95086705 L30.1796374,4.95086705 Z M29.1185725,8 C30.1372125,9.01190476 31.3096096,10.0436508 30.9252171,11.5714286 L30.2333107,13 C29.195451,11.5912698 28.7726193,9.88492063 29.1185725,8 C29.1185725,8 28.7726193,9.88492063 29.1185725,8 L29.1185725,8 L29.1185725,8 Z M48.9859151,71 C48.4926088,72.6589222 49.3213634,74.3987674 48.8477893,75.9565358 C47.7822477,76.1588434 46.0655417,75.5721514 45,75.8756128 C45.9668804,74.8640749 45.7892901,73.346768 46.0063449,72.0317687 C46.9929576,71.6878458 47.9795702,71.5664612 48.9859151,71 C48.9859151,71 47.9795702,71.5664612 48.9859151,71 L48.9859151,71 L48.9859151,71 Z M44.3016699,67.1723214 C45.2679638,67.4370255 45.9790102,67.9475263 47,68.0609709 C45.5049793,69.6491956 44.721005,71.5777541 44.9033246,73.7710166 C44.7757009,74.2058877 44.6663091,74.6407587 44.3745978,75 C44.3745978,73.7710166 44.4292936,72.5987556 44.3016699,71.3319574 L44.1193503,71.5210317 C44.1193503,72.5420333 44.1193503,73.7142943 43.8458709,74.6596661 C43.6817833,74.4705918 43.4265358,74.2058877 43.1348245,74.1869802 L43.1895203,70.102974 C43.1348245,70.0462517 43.0983605,69.9328071 42.9889688,69.970622 C42.8248811,71.3319574 42.7519533,72.485311 42.6060976,73.8466464 C40.8011336,74.1302579 42.2414584,71.8235507 41.6215718,71.2563276 C41.4210202,71.8613656 41.2204687,73.3739605 41.2204687,73.3739605 C39.9442315,73.1470713 40.9287573,71.6533838 40.6370459,70.840364 C40.1812469,71.3508648 40.5094222,72.4664036 39.8530717,72.7500151 C39.2696489,72.3529589 38.6497623,71.9180879 38.0116437,71.8046433 C37.9100917,70.1201798 38.4596029,69.7581024 40.1812469,69.0063427 C41.3480924,67.890804 42.5878657,66.5105612 44.3016699,67.1723214 C44.3016699,67.1723214 42.5878657,66.5105612 44.3016699,67.1723214 L44.3016699,67.1723214 L44.3016699,67.1723214 Z M44,75 C44,75.5081967 43,76 43,76 C43.0701754,75.4098361 43.5087719,75.2786885 44,75 C44,75 43.5087719,75.2786885 44,75 L44,75 L44,75 Z M37.8426985,67.6037736 C39.8559477,67.3396226 40.3307707,64.8301887 42.1540907,64.5471698 C42.6858924,64.3584906 43.464602,64.3962264 43.9964037,64 C43.9964037,64.4716981 44.0343895,65.1886792 43.8634533,65.8301887 C41.5843032,65.3584906 40.3877494,68.245283 38.2605427,68.5471698 C37.1209676,69.1509434 37.2349251,70.6226415 36.0003855,71 C35.9813926,69.6981132 36.6651376,68.3773585 37.8426985,67.6037736 C37.8426985,67.6037736 36.6651376,68.3773585 37.8426985,67.6037736 L37.8426985,67.6037736 L37.8426985,67.6037736 Z M34.8079332,72 C35.4655532,72.2592867 36.0668058,72.7408192 36.8371608,72.7408192 C37.8329854,72.0740819 38.4154489,73.6668432 39.4112735,73.5927613 C40.8956159,72.8334216 41.6283925,74.6113877 43,74.9262358 C41.8538622,75.4077683 40.9707724,76.3152718 40.8204593,77.5376235 C40.7453027,78.3710451 41.0271399,79.1303847 41.0271399,79.8712039 C40.7453027,79.8897244 40.4446764,80.1119702 40.1440501,79.9267654 C40.2192067,79.4822739 40.9683299,79.0122241 40.5175783,78.660335 C40.4234447,79.049265 39.8622129,79.2600281 39.6743215,79.5933967 C39.8622129,79.0192619 40.1628392,78.408086 39.9561587,77.7413488 C39.4676409,78.2969631 39.4488518,79.4452329 38.5281837,79.5933967 C38.9415449,78.9451799 39.5427975,78.1302788 39.1294363,77.4079801 C38.9415449,78.2599222 38.2651357,79.2044667 37.3820459,79.4637534 C37.5699374,79.2229871 38.6784969,77.4450211 38.3966597,76.8708862 C38.0584551,77.519103 37.6638831,78.3340041 37.0438413,78.871098 C37.2317328,78.2599222 37.7954071,77.4079801 37.5887265,76.6671609 C37.0814196,77.2783368 35.8977035,79.1303847 35.8977035,79.1303847 C36.217119,77.945074 36.3110647,76.5745585 36.1607516,75.1299611 L35.8977035,75.1299611 C35.8601253,76.3337923 35.7661795,77.6672668 35.2212944,78.7414547 C35.4655532,76.6115995 34,74.7965925 34,72.5926554 C34.2066806,72.3704096 34.5073069,72.1296434 34.8079332,72 C34.8079332,72 34.5073069,72.1296434 34.8079332,72 L34.8079332,72 L34.8079332,72 Z M42.0009281,77 C41.9727752,76.5581395 42.5921392,76.3255814 42.9018213,76 C43.2855454,76.5376744 42.4513747,76.7906977 42.0009281,77 C42.0009281,77 42.4513747,76.7906977 42.0009281,77 L42.0009281,77 L42.0009281,77 Z M34,80.3541667 C33.7366148,80.9791667 33.2098444,81.4791667 32.7070181,82 C31.7253096,81.3541667 32.0365831,80 32.0844713,79 C32.8027945,79.3125 33.9760559,79.6458333 34,80.3541667 C34,80.3541667 33.9760559,79.6458333 34,80.3541667 L34,80.3541667 L34,80.3541667 Z M32.0328912,77.4814815 C32.5233359,77.2222222 33.99467,77 33.99467,77 C34.0135333,77.7962963 33.99467,78.2777778 33.7305844,79 C33.1646867,78.5 31.7688056,78.4814815 32.0328912,77.4814815 C32.0328912,77.4814815 31.7688056,78.4814815 32.0328912,77.4814815 L32.0328912,77.4814815 L32.0328912,77.4814815 Z M34.3535168,81 C35.0307764,81.3016981 35.0525831,81.7413208 34.9610954,82.2045283 C34.886652,82.5813208 34.6292331,84 34.6292331,84 C34.2532563,83.4150943 33.5764979,83.2075472 33,82.7735849 L34.3535168,81 L34.3535168,81 L34.3535168,81 L34.3535168,81 Z M32.9404079,74 C33.3871016,74.7549669 33.3635914,75.6688742 33.9513463,76.3642384 C34.0482083,76.5877483 33.9899031,76.6743709 33.8690606,76.7057616 C33.6678134,76.7582119 32.3996733,76.9403974 32,77 C32.0705306,75.9072848 32.4937141,75.0331126 32.9404079,74 C32.9404079,74 32.4937141,75.0331126 32.9404079,74 L32.9404079,74 L32.9404079,74 Z M32,74 C31.5409836,76.0877193 30.9344262,78.5847953 31.1803279,81 C30.9180328,80.9385965 30.5737705,80.6315789 30.2295082,80.5701754 C30.5409836,79.7923977 30.4590164,78.9532164 30,78.2777778 C30.0163934,77.4795322 30.8688525,77.5 30.9508197,76.7426901 C30.4754098,75.4327485 31.442623,74.6754386 32,74 C32,74 31.442623,74.6754386 32,74 L32,74 L32,74 Z M26.759322,54.448345 C26.6372881,53.9338014 26.9220339,53.4002006 27.3491525,53 C27.3491525,53.667001 27.6745763,54.5055165 27.3491525,55.1915747 C27.4711864,57.7071214 27.6949153,59.7462387 27.7152542,62.1855567 C26.6576271,62.7572718 26.4338983,63.9769308 26.4745763,65.0060181 C25.9050847,65.4252758 25.5389831,65.996991 25.579661,66.5877633 C25.8237288,66.7973922 26.0067797,67.1213641 26.1694915,67.4072217 C26.0067797,67.8645938 25.559322,68.3791374 26.1694915,68.779338 C26.9627119,69.217653 27.6135593,70.0752257 28,70.8375125 C27.7966102,71.4092277 27.2474576,71.5235707 26.9830508,72 C25.7220339,71.0471414 24.3389831,70.3420261 22.8745763,69.884654 C23.0983051,68.4172518 24.0745763,66.6449348 22.8745763,65.2156469 L22,64.5295888 C23.5864407,63.44333 25.3762712,62.0902708 26.1694915,60.337011 C27.1457627,58.5837513 27.4305085,56.2397192 26.759322,54.448345 C26.759322,54.448345 27.4305085,56.2397192 26.759322,54.448345 L26.759322,54.448345 L26.759322,54.448345 Z M24.0003963,51.8940678 C23.8043067,51.4173729 23.7258709,50.8262712 23.3533008,50.4639831 C23.2944739,50.9788136 23.7258709,51.5508475 23.5689993,52.1038136 L22.9415128,52.6567797 C22.000283,52.0275424 21.8826293,50.9216102 21.3727965,50.0444915 C21.1374891,50.4449153 22.1571547,52.6567797 22.1571547,52.6567797 C21.0394443,51.7033898 20.7690369,50.1358263 20.2395951,48.8201483 L19.9609519,48.9385593 C20.1570414,50.3114407 20.9021817,51.6461864 21.5296682,52.9237288 C20.697072,52.7925424 19.840749,49.9260805 19.1938497,48.3434534 L18.8432416,48.404661 C19.2550296,49.9300847 20.1219414,51.3498729 20.8278637,52.8562288 L20.6080474,53 C18.9805043,50.6355932 17.9412297,48.0233051 17,45.3728814 C18.2157551,45.6398305 19.0001132,44.1525424 20.1766504,44 C21.5492771,44.3050847 23.0591665,43.9618644 23.8435246,45.4491525 C24.3141395,47.2224576 24.4514022,49.1101695 24.9808439,50.8644068 C25.0592797,51.0932203 24.8827991,51.4173729 24.7063186,51.6271186 L24.1613858,49.3921822 L23.8435246,49.434322 C23.9023515,50.2542373 24.0396142,51.0360169 24.0003963,51.8940678 C24.0003963,51.8940678 24.0396142,51.0360169 24.0003963,51.8940678 L24.0003963,51.8940678 L24.0003963,51.8940678 Z M19.3698624,53.0708696 C19.4577886,53.0375362 19.864729,53 20,53 C19.4363707,53.3043478 18.69238,53.5507246 18.1287507,54 C17.616299,53.3411594 18.7582119,53.3026087 19.3698624,53.0708696 C19.3698624,53.0708696 18.7582119,53.3026087 19.3698624,53.0708696 L19.3698624,53.0708696 L19.3698624,53.0708696 Z M17,51.6908207 C17,51.100052 17.5977011,50.550026 17.9195402,50 C18.2183908,50.6315113 18.5402299,51.3648794 19,51.9963907 C18.3793103,52.016762 17.5977011,51.955648 17,51.6908207 C17,51.6908207 17.5977011,51.955648 17,51.6908207 L17,51.6908207 L17,51.6908207 Z M26.5847498,51 C27.8358681,51.8391862 25.8966348,52.4113585 25.5212993,52.9835309 C25.2710756,53.078893 25.1251118,52.7355896 25,52.5830102 C25.2710756,51.8964034 25.9383387,51.4195931 26.5847498,51 C26.5847498,51 25.9383387,51.4195931 26.5847498,51 L26.5847498,51 L26.5847498,51 Z M25.7201507,49.7780163 C25.6449362,49.8300327 25.48142,50.0438012 25.3761197,49.9919576 C25.2407337,49.1451787 24.6991896,48.2119938 25.2256908,47.3824961 C25.2106479,46.8122165 25.6468918,46.4665924 25.8725352,46 C26.3196099,47.3418853 25.4235048,48.0925807 25.7201507,49.7780163 C25.7201507,49.7780163 25.4235048,48.0925807 25.7201507,49.7780163 L25.7201507,49.7780163 L25.7201507,49.7780163 Z M27,53 C27.3109594,53.3018868 27.6219189,53.6603774 27.9187438,54.0754717 C28.2014342,55.1886792 27.6979626,56.3890566 27.1554797,57 C26.9434619,55.6603774 27.1272107,54.3773585 27,53 C27,53 27.1272107,54.3773585 27,53 L27,53 L27,53 Z M27.8245212,67 C27.6118192,66.0309278 26.3356072,64.2989691 27.4522927,63 C27.8599715,64.3195876 28.2298958,66.8684536 27.8245212,67 C27.8245212,67 28.2298958,66.8684536 27.8245212,67 L27.8245212,67 L27.8245212,67 Z M27.9783716,69 C27.3284713,68.1166667 25.881919,67.4333333 26.0077061,66.3666667 L26.5318193,66 C27.3075067,66.9 28.1460878,67.7833333 27.9783716,69 C27.9783716,69 28.1460878,67.7833333 27.9783716,69 L27.9783716,69 L27.9783716,69 Z M27.9923134,70 L26,68.1981982 L26.1603011,68 C26.9160061,68.6126126 28.1068141,69.0630631 27.9923134,70 C27.9923134,70 28.1068141,69.0630631 27.9923134,70 L27.9923134,70 L27.9923134,70 Z M22.8454907,71.3934412 C22.9593215,71.5102032 24.8990862,73.6634437 25,74.9723413 C22.759714,75.3255359 21.8111244,72.1675607 19.4093764,72.8116214 C18.5617006,73.0609353 17.9965834,74.0789668 17.0076284,74.0166383 C16.9874456,73.6634437 16.9672629,73.1024876 17.5121973,73.1024876 C17.5929283,73.1024876 17.9636855,73.2194573 18.0040511,73.2608019 C18.4480717,72.9699357 18.6222489,72.7285168 19.1268178,72.5207553 C20.3071054,72.1981016 21.6391674,70.1578834 22.8454907,71.3934412 C22.8454907,71.3934412 21.6391674,70.1578834 22.8454907,71.3934412 L22.8454907,71.3934412 L22.8454907,71.3934412 Z M24,72 C24.7333333,72.2692308 25.4222222,72.7884615 26,73.25 C25.9111111,73.5384615 25.5777778,73.75 25.3555556,74 C24.9777778,73.3076923 24.5333333,72.6346154 24,72 C24,72 24.5333333,72.6346154 24,72 L24,72 L24,72 Z M26.6073601,74 C27.164416,74.4819277 27.6143459,75.3012048 28,76 C27.442944,75.9759036 26.6716358,75.7108434 26.0074536,75.5662651 C25.943178,75.1084337 26.3074069,74.4819277 26.6073601,74 C26.6073601,74 26.3074069,74.4819277 26.6073601,74 L26.6073601,74 L26.6073601,74 Z M27,73.0444444 L27.8317148,72 C28.1320563,72.5111111 27.9241276,73.3333333 27.9934371,74 L27,73.0444444 L27,73.0444444 L27,73.0444444 L27,73.0444444 Z M27.7370419,77 C27.7370419,77.9125475 28.2191318,78.634981 27.7370419,79.4524715 C27.5179101,80.1178707 27.9123473,80.6121673 28,81.1634981 L27.2695608,82 C26.9627764,81.486692 26.9627764,80.7072243 27.0504291,80.0798479 C27.5909541,79.2243346 27.2841696,77.9125475 27.7370419,77 C27.7370419,77 27.2841696,77.9125475 27.7370419,77 L27.7370419,77 L27.7370419,77 Z M28.4056845,82.1616162 C28.0194597,84.6060606 28.3689012,87.2525253 29.7298837,89.2121212 C29.9505835,88.7474747 29.6195337,88.1818182 29.5275755,87.6767677 C28.8103009,85.9393939 28.4056845,83.8787879 28.9390425,82 C29.6747087,83.7373737 29.8954086,85.6969697 30.0609335,87.6767677 C30.7598163,86.6666667 30.1712834,85.030303 30.0609335,83.7575758 L29.6747087,82.3030303 C30.1345001,82.5656566 30.4103749,83.4747475 30.6678581,84.1212121 C31.2196077,85.9393939 31.0540828,88.2222222 30.3919832,90 C28.1213495,89.7361616 27.4864696,83.549899 28.4056845,82.1616162 C28.4056845,82.1616162 27.4864696,83.549899 28.4056845,82.1616162 L28.4056845,82.1616162 L28.4056845,82.1616162 Z M29,76 C29.556962,75.3109244 29.5822785,74.302521 31,74 C29.9620253,74.5210084 30.3924051,76 29,76 L29,76 L29,76 L29,76 Z M31,72.64 L30.1627907,73 L30,72 C30.372093,72.14 30.6976744,72.36 31,72.64 C31,72.64 30.6976744,72.36 31,72.64 L31,72.64 L31,72.64 Z M30.6049383,70 C30.2016461,68.5565217 30.100823,67.5478261 30,66 C31.8148148,67.0086957 30.6049383,70 30.6049383,70 L30.6049383,70 L30.6049383,70 L30.6049383,70 Z M29,73.3087248 C28.4310345,73.7221477 28.0689655,74.3986577 27.8793103,75 C27.6034483,70.2456376 27.4482759,65.6791946 27,61 C27.3103448,61.5261745 27.6896552,62.1838926 28.1206897,62.5409396 C28.3275862,65.9234899 28.6896552,69.7194631 29,73.3087248 C29,73.3087248 28.6896552,69.7194631 29,73.3087248 L29,73.3087248 L29,73.3087248 Z M38.1688299,57.5323971 C38.1256489,57.7765114 38.3003447,57.9076209 38.4852934,58.04828 C39.10639,58.5203935 39.0645892,59.025931 38.8798377,59.7135096 C38.6690592,60.4985749 38.1698158,61.2575773 38.7262395,62.1204329 C38.6276527,63.5329932 37.1488513,64.5675444 36.1038317,65.2041914 C37.464329,62.7968702 38.0952842,59.1162552 36.3798746,56.6890389 C36.064397,56.4105059 35.7094846,55.7340685 35.2559855,55.8932302 C37.8636053,58.8655755 36.4011693,62.7226611 35.0390947,66 C32.3772521,64.7267062 27.8398951,62.1078989 28.0788694,60.6282917 C29.1633238,61.7822142 30.5041037,62.4586515 31.9040357,63.4136219 C31.9829051,63.334041 32.1012092,63.2544602 32.0617745,63.1350889 C30.6026905,62.0607472 28.6901073,61.1654625 28.0788694,59.3351026 C28.9069982,60.3298634 30.1811335,61.5558066 31.5613481,61.6353875 L31.4899713,61.4042051 C30.1689087,60.4890251 28.5126512,59.6136356 28,57.9623327 C28.7689767,58.8576174 29.8534311,59.5141596 30.9181681,59.6136356 C30.8787334,59.1958361 30.3660822,59.275417 30.129474,59.0366744 C29.399932,58.5989796 28.6901073,58.2010753 28.2168909,57.4052667 C28.6506726,56.6691437 29.459084,56.7089341 30.2872128,56.8283054 L31.5491234,57.3256858 L31.7068622,57.1864193 C30.9378854,56.5497724 29.9520178,56.1717633 28.9267155,56.0324967 C29.8218833,55.511441 31.3933563,55.3391485 32.4208275,55.8466754 C32.5700878,55.9202877 33.0902316,55.8299634 32.9149443,55.7082047 C31.8819523,54.9905843 30.4447545,54.7347318 29.2816279,55.1770025 L29.2224758,55.2565833 C29.3013452,54.9581551 29.3013452,54.6398316 29.4985188,54.3811938 C30.5435384,54.7393077 31.7857316,53.3665378 32.7715992,54.3811938 C34.2375843,54.8883229 36.0198357,54.717224 37.2014967,55.5627707 C38.1426059,56.2364227 38.2879227,56.8609335 38.1688299,57.5323971 C38.1688299,57.5323971 38.2879227,56.8609335 38.1688299,57.5323971 L38.1688299,57.5323971 L38.1688299,57.5323971 Z M40.8971147,54.8487805 C40.9341652,54.9740854 41.112826,56.4329268 40.6582185,57 C40.6582185,57 39.1580139,54.8963415 38.2942598,53.9085366 C37.7487308,53.0487805 38.0565001,51.8985366 38.4533724,51.4573171 C39.0216317,52.6463415 39.226205,54.0182927 40.1808807,55.0243902 C40.4991059,54.4207317 39.3398569,51.6585366 38.794328,51 C39.771734,51.4207317 40.5900274,52.0060976 40.9991741,52.847561 C41.0182676,53.5110366 40.6979967,54.1743293 40.8971147,54.8487805 C40.8971147,54.8487805 40.6979967,54.1743293 40.8971147,54.8487805 L40.8971147,54.8487805 L40.8971147,54.8487805 Z M55.3491087,49 C56.4210604,49.4756904 55.8551827,52.3010931 55.8156898,52.5201089 C55.3891658,54.8886506 53.4624736,56.8796131 51.3622004,57.6417088 C50.0833807,58.0381174 48.7857549,58.0975787 47.4317106,57.8597335 C46.604239,57.3245818 44.2534676,54.5695417 44.2534676,54.5695417 C43.9525689,54.8272073 45.0997453,57.2056592 45.7955737,57.562427 C44.7612343,57.4435044 43.6892825,57.3840431 42.8241986,56.4326623 C42.4480752,55.5407429 41.9026962,54.4704395 41.88389,53.439777 C42.0719518,52.6073188 41.4325419,51.9928854 41,51.3586315 C42.7301678,51.8343219 47.7248988,53.7759315 48.5264178,53.4619759 L48.3156006,53.1424705 C46.2093094,52.9442662 44.29108,52.250551 42.5609122,51.1406068 C44.7822972,51.3140355 47.2775,52.2765158 49.7563414,52.1825669 C50.1104616,52.169089 51.0236893,52.0325262 51.1553325,51.9334241 C51.1929448,51.8343219 51.0613016,51.794681 51.0236893,51.7153993 C48.3720191,52.0325262 46.2469218,51.3189907 43.9149565,50.6450959 C45.1373577,50.5856346 50.4218918,50.9424024 52.0392225,50.6450959 C52.0580287,50.5459938 51.9451917,50.5063529 51.8887732,50.4270712 C50.1586054,50.3477894 46.4349835,50.3081486 46.1340848,50.2288668 C46.3033403,50.1495851 46.7358822,49.4756904 47.149618,49.7135356 C49.7448696,49.9712012 52.9795311,49.9712012 55.3491087,49 C55.3491087,49 52.9795311,49.9712012 55.3491087,49 L55.3491087,49 L55.3491087,49 Z M39.2972969,42.0053876 C42.0879089,39.3923513 45.3975601,38.940891 49.1044448,39.005755 C51.6126634,39.0497368 53.0267016,39.0704341 51.1094383,40.9403998 C49.9456008,42.0754259 48.5697799,43.2252358 47.9008839,44.6664713 C47.411402,45.8122157 47.3172708,47.327555 45.9994347,47.8634677 C46.9185313,45.6725088 46.2065232,43.6685649 46.2065232,43.6685649 C45.9806085,44.9621473 46.1688708,46.6622841 45.0581232,47.7341094 C44.9075134,46.6438043 45.0769494,45.8491751 44.6439462,44.9436675 C44.6251199,46.0524524 44.7004248,46.8655613 44.5121625,47.9928259 C43.7967658,47.3829942 43.7026347,46.3481283 43.156674,45.6643777 C43.1378478,46.5329258 43.401415,47.4384335 43.7026347,48.2700221 C43.3637625,48.3439411 41.9706215,46.4035676 41.518792,45.6643777 C41.3305297,46.1078916 42.2153625,48.2515424 42.6107133,48.7320158 C41.1799199,48.8059348 41.13982,47.0340966 40.6317,46.1470687 L40.3139133,46.3296486 C40.539828,47.179717 40.5586543,48.3624208 41.3870084,48.9907323 C40.5774805,49.15705 39.4102542,47.031879 39.146687,46.8655613 C39.0902083,47.6417107 39.3349493,48.4363398 39.9750411,48.9907323 C39.2972969,48.8798538 38.4501165,48.787455 38.2053755,48.0667449 C37.753546,45.9785334 38.0171132,43.7424839 39.2972969,42.0053876 C39.2972969,42.0053876 38.0171132,43.7424839 39.2972969,42.0053876 L39.2972969,42.0053876 L39.2972969,42.0053876 Z M38,50.7063549 C37.6619217,51.4723189 37.5629893,53.1920995 37.561032,53.2627597 C37.5551601,53.4745487 37.341637,53.6648908 37.2882562,53.8659563 C36.6298932,53.425527 36.683274,52.3531774 36.6476868,51.7404063 C36.5587189,51.7021081 36.5231317,51.8170026 36.4519573,51.8744499 C36.3274021,52.659563 36.4163701,53.2723342 36.594306,54 C36.0427046,53.9042545 35.7935943,52.0467918 35.5622776,51.8744499 C35.4199288,52.4297738 35.4733096,53.617018 35.4911032,53.7319126 C35.1352313,53.7702108 34.9395018,52.08509 34.7259786,51.7404063 C34.5124555,52.3148792 34.3345196,52.8893522 34.405694,53.5978689 L33,53.2531851 C33.480427,52.4106247 35.6868327,50.2850747 35.6868327,50.2850747 C36.3985765,50.0744346 37.7330961,49.5957071 38,50.7063549 C38,50.7063549 37.7330961,49.5957071 38,50.7063549 L38,50.7063549 L38,50.7063549 Z M36.9998659,45.6601709 C36.8871051,46.6111111 37.0796345,47.4832479 36.8077883,48.3846154 C36.3106466,48.7948718 35.4745444,48.8803419 35,49 C35.384155,47.6666667 35.5197392,46.1965812 36.1524651,45 C36.5366201,45.017094 37.0091308,45.5830769 36.9998659,45.6601709 C36.9998659,45.6601709 37.0091308,45.5830769 36.9998659,45.6601709 L36.9998659,45.6601709 L36.9998659,45.6601709 Z M30.6433121,40.4923545 C31.9617834,40.1685718 32.0764331,38.4417309 33.3949045,38.2978275 C34.9235669,38.7295378 35.2292994,36.4450712 36.566879,37.1286124 C37.044586,37.470383 37.3312102,38.1179483 38,38.1719121 C38,38.1719121 37.3669427,40.9922389 35.7261146,44 C35.5036943,42.8629832 36.483949,41.5766666 36.017707,40.668816 C35.9233121,40.4851593 34.7133758,39.9886926 34.3503185,39.7908254 C34.044586,39.4310669 33.6242038,39.161248 33.1847134,39.2691755 C32,40.5822941 29.4585987,41.2478474 29.2675159,43.1545675 L29,43.4783502 C29.2866242,42.3810867 29.0573248,40.6902217 30.6433121,40.4923545 C30.6433121,40.4923545 29.0573248,40.6902217 30.6433121,40.4923545 L30.6433121,40.4923545 L30.6433121,40.4923545 Z M30.5567413,43.4056453 C31.36945,42.3462098 32.4278614,42.0911606 33.3350712,41.1494401 C33.6563747,40.8551525 34.1666802,41.0317251 34.4312831,41.3652511 C34.5824847,41.7576346 34.6013849,42.2284948 34.9037882,42.5620208 C35.1872912,42.6601166 36,42.0715414 36,42.0715414 C35.5085947,43.4645028 35.5274949,45.1713711 35.4518941,46.6624284 C35.2439918,48.6047268 35.3762933,50.527406 34.0910794,52.1557975 C34.3178818,50.2134992 34.8281874,47.7414831 34.4312831,45.8776614 C34.336782,45.838423 34.2989816,45.9757573 34.2233808,46.0149956 C34.2044806,48.3889158 34.1666802,50.7235977 33.1460692,52.7247536 L32.390061,53.5095206 C33.2783706,51.7437948 33.5429735,49.4679705 33.2027698,47.4275763 C33.1082688,47.3883379 33.0704684,47.5256721 32.9948676,47.5649105 C33.0893686,49.9192115 32.8814663,52.5089427 30.8213441,53.8626658 L30.2165376,54 C31.7663543,52.9013262 32.5790631,51.0571237 32.390061,49.1344445 L32.0498574,49.193302 C32.2167462,52.1026296 30.2996985,54.637427 27.9674133,52.8620878 C26.3240406,51.2680298 27.0832618,48.8203415 27.9789424,47.394616 C28.8421147,46.0210776 30.5720504,45.0626809 30.5567413,43.4056453 C30.5567413,43.4056453 30.5720504,45.0626809 30.5567413,43.4056453 L30.5567413,43.4056453 L30.5567413,43.4056453 Z M28,45.7633754 L26.8674699,47 C26.4578313,43.0428014 26.2891566,38.9143778 26,35.0142542 C26.4819277,34.9762042 27.1501205,35.0152055 27.1592771,35.1207942 C27.4546988,38.5180872 27.9766265,42.2391857 28,45.7633754 C28,45.7633754 27.9766265,42.2391857 28,45.7633754 L28,45.7633754 L28,45.7633754 Z M26.4762128,14 C27.2095149,14.8978102 27.1047574,15.9927007 26.5809703,17 C26.1357512,16.9343066 25.5857747,14.350365 26.4762128,14 C26.4762128,14 25.5857747,14.350365 26.4762128,14 L26.4762128,14 L26.4762128,14 Z M25.0363937,12 C25.5854258,10.958871 24.7294101,9.99637097 25.0933577,9.13407258 C25.1804563,8.92762097 26.4750755,7.58467742 26.8639085,7 L27,7 C26.7667002,8.85483871 26.5334005,10.891129 25.0363937,12 C25.0363937,12 26.5334005,10.891129 25.0363937,12 L25.0363937,12 L25.0363937,12 Z M19.9538462,11.1489362 C19.3846154,10.2553191 19.1230769,9.17021277 19,8 C20.2,8.57446809 20.9384615,10.2553191 21,12 C20.6461538,11.9361702 20.2923077,11.4468085 19.9538462,11.1489362 C19.9538462,11.1489362 20.2923077,11.4468085 19.9538462,11.1489362 L19.9538462,11.1489362 L19.9538462,11.1489362 Z M21.144554,7.15067248 C21.144554,7.15067248 21.0553213,8.13437807 21.0775303,8.80411797 C21.0850655,9.0276326 20.9980141,9.04934086 20.9087814,8.92250836 C20.4441765,8.26221558 19.7144514,7.76935777 19.0822874,7.4320758 C18.903822,5.98485874 18.8839926,4.09543648 20.4306925,3.31152724 C20.4306925,3.31152724 20.0900219,4.84979837 20.2159391,5.90104075 C20.2325959,6.03953139 20.290498,5.99611488 20.3019991,5.85621723 C20.4751105,3.75835551 22.4247456,2.43214188 23.7818757,1 L24,1.22110261 L23.9405115,3.17082558 C22.8697193,3.4522289 21.9773924,4.49744121 21.7196091,5.56275377 L21.6402911,6.64816656 C21.4221668,6.6682668 21.1643835,6.90946964 21.144554,7.15067248 C21.144554,7.15067248 21.1643835,6.90946964 21.144554,7.15067248 L21.144554,7.15067248 L21.144554,7.15067248 Z M23.9793617,14 C22.9555539,13.2899408 22.3867718,12.4556213 22,11.5680473 L22.5005283,11 C23.5698386,11.816568 24.1158694,12.8816568 23.9793617,14 C23.9793617,14 24.1158694,12.8816568 23.9793617,14 L23.9793617,14 L23.9793617,14 Z M23.8576245,12 C23.6069072,11.2366412 22.8547554,10.6068702 22.4111787,9.9389313 C21.8133145,9.04198473 20.5597282,8.1259542 21.1575924,7 C22.1026037,7.2480916 22.6233241,8.03053435 23.4526197,8.77480916 C23.8576245,9.82442748 24.2047714,10.9122137 23.8576245,12 C23.8576245,12 24.2047714,10.9122137 23.8576245,12 L23.8576245,12 L23.8576245,12 Z M22.1159849,5.61111111 C22.0149021,3.87037037 24.5015388,4.38888889 24.8856534,2.87037037 C25.5325833,2.48148148 26.4221119,2.59259259 26.9881755,2 C27.0892583,4.59259259 26.5636278,7.16666667 24.5824051,9 C23.9961249,7.64814815 21.4286219,7.2962963 22.1159849,5.61111111 C22.1159849,5.61111111 21.4286219,7.2962963 22.1159849,5.61111111 L22.1159849,5.61111111 L22.1159849,5.61111111 Z M23.9589415,24 C23.4064568,22.8518519 22.1239032,22.2962963 21.0583971,21.7407407 L20.9794707,21.8148148 C21.9784813,22.4605556 23.3867252,24.1666667 23.7616255,25 C23.2288725,24.3148148 21.9684182,23.3959259 20.8437174,23.0625926 L20.7032284,23.2037037 C22.08444,24 23.8997467,25.2407407 23.8208203,27.0740741 C23.2288725,26.2037037 22.08444,24.7962963 20.7624232,24.7407407 C22.5211002,25.9327778 23.5840412,27.2222222 23.6037728,28.4074074 C23.1302145,27.462963 22.1633664,26.462963 21.0583971,26.4074074 C22.1041716,27.037037 22.9328986,27.8703704 23.3275304,29 C22.8934354,28.6666667 21.6898081,27.7037037 20.7032284,28.0740741 C20.091549,28.1666667 19.6771855,27.4259259 19.2036272,27.0740741 C17.7259282,24.8851852 18.3044585,22.1838889 18.3011041,19.6364815 C18.3007095,19.3605556 18,18 18,18 C20.5059125,19.2962963 24.4449306,21.6737037 23.9589415,24 C23.9589415,24 24.4449306,21.6737037 23.9589415,24 L23.9589415,24 L23.9589415,24 Z M17.6666667,27.1942579 C18.7222222,27.5674635 19.4074074,28.5564583 20,29.5454532 C19.1296296,28.9669845 18.0555556,28.5937789 17.2037037,28.201913 C17.7962963,28.9296639 18.8888889,29.5454532 19.8703704,29.9559793 C18.8148148,30.1239219 17.3518519,29.8253574 16.462963,28.8177023 C15.8703704,27.9779897 15.1851852,27.063636 15,26 C16.037037,26.2425836 16.5555556,27.3062196 17.6666667,27.1942579 C17.6666667,27.1942579 16.5555556,27.3062196 17.6666667,27.1942579 L17.6666667,27.1942579 L17.6666667,27.1942579 Z M10.6767108,22.5716948 L10,22.2409501 C11.4953429,21.1114566 13.6237863,20.8163588 15.9588144,21.101718 C16.0340045,21.3038398 16.015207,21.5978352 15.8272318,21.7632076 C15.2069135,23.067812 15.2069135,24.5745383 15.8272318,25.8791427 C15.3196987,25.732145 14.8121656,25.2176531 14.1918474,25.0706554 C13.8346944,25.8423933 14.3610251,26.301761 14.5302028,27 C14.0602647,26.9632506 13.8346944,26.2282622 13.5151366,25.8056438 C12.7632357,24.6480371 12.1805125,23.0861867 10.6767108,22.5716948 C10.6767108,22.5716948 12.1805125,23.0861867 10.6767108,22.5716948 L10.6767108,22.5716948 L10.6767108,22.5716948 Z M20.9888645,31.8019049 C20.2328517,32.6868975 19.3546923,33.7069428 18.5866499,34.6592632 C16.3485928,36.6371898 13.7857371,36.2695684 12.7199163,34.5798204 C12.2757472,33.8648354 12.1091838,33.0108255 11.794564,32.2163977 C10.9802539,31.2630843 9.38864797,31.1041987 9.25909865,29.5749252 C9.57371843,28.3832834 9.57371843,27.0526169 9,26 C10.3325073,26.8540099 14.9222548,28.3435621 15.2553816,29.2174327 C14.607635,29.1777113 13.9969025,28.8798008 13.4601981,28.800358 C14.1634659,29.71395 15.4774662,29.5947859 16.1807339,30.2899102 C15.033297,30.4487958 13.8858602,30.0913033 12.7939445,29.5153431 L12.7199163,29.5749252 C13.9413813,30.627542 15.4404521,31.2630843 17.1801144,31.084338 C17.4947342,31.6404375 14.5521138,32.0575121 13.8488461,31.7198803 L13.6637756,31.8589051 C14.9037477,32.4150046 18.2720301,31.99793 18.5866499,31.7993231 C17.3281708,32.8916613 15.5700014,33.5272036 14.0524236,33.4477608 L14.2560011,33.6463677 C16.217748,33.5669249 18.1239738,33.169711 19.5120022,31.7993231 C18.8827626,33.8449747 16.6619171,34.3017707 15.1813534,34.7982881 L15.1813534,35.0167557 C16.3658044,34.8975915 17.420706,34.7188453 18.4571006,34.0038602 C19.3084247,33.2888752 19.826622,32.1568156 20.7149602,31.5014126 C20.8260025,31.6404375 21.0527138,31.7272287 20.9888645,31.8019049 C20.9888645,31.8019049 21.0527138,31.7272287 20.9888645,31.8019049 L20.9888645,31.8019049 L20.9888645,31.8019049 Z M21,29.0004649 C22.3378378,28.9763741 23.1081081,29.8918239 24,31 C23.027027,30.4700027 21.6891892,30.2531857 21,29.0004649 C21,29.0004649 21.6891892,30.2531857 21,29.0004649 L21,29.0004649 L21,29.0004649 Z M23.2170445,32.8656716 C22.7997571,32.3681592 21.7375708,31.8173419 22.0600202,31 C22.0600202,31 23.292915,31.3198294 23.5584615,31.4619758 C24.1654251,31.8173419 24.5447773,32.2437811 25,32.7412935 C24.4689069,33.238806 23.8619433,32.8656716 23.2170445,32.8656716 L23.2170445,32.8656716 L23.2170445,32.8656716 L23.2170445,32.8656716 Z M24.5140061,29.5553772 C24.7106817,27.6484751 25.7814715,25.6260032 24.819946,23.7191011 C24.3610361,22.6211878 23.9021262,21.5040128 23.0935707,20.540931 C22.8313365,19.9823435 23.1809821,19.4815409 23.3995106,19 C24.4484475,19.905297 24.8855045,21.0609952 25.4536787,22.1203852 C25.7377658,24.8747994 25.8251772,28.1300161 26,31 C25.5410901,30.7688604 24.9073574,30.0754414 24.5140061,29.5553772 C24.5140061,29.5553772 24.9073574,30.0754414 24.5140061,29.5553772 L24.5140061,29.5553772 L24.5140061,29.5553772 Z M26.1506349,32.283167 C26.0647619,31.3054664 25.9698413,28.2154013 25.9415873,27.6707158 C25.7474603,23.9363991 25.6095238,19.7823427 25,16 C25.6249206,16.9103471 26.6507937,17.5618221 26.6031746,18.8893709 C26.1269841,23.9652928 26.968254,29.1778742 27,34 C26.4114286,33.5818221 26.2109524,32.968026 26.1506349,32.283167 C26.1506349,32.283167 26.2109524,32.968026 26.1506349,32.283167 L26.1506349,32.283167 L26.1506349,32.283167 Z M19.0226481,38.0100426 C19.488571,37.9371018 20.0152665,38.2835707 20.4204169,38.3382763 C21.088915,38.5388636 24.0262552,39.3959184 24.2085728,40.1070915 C24.5934657,41.4017912 25.3227364,42.5688445 26.6799901,43.3347232 C26.8217927,43.9911907 27.064883,44.6841286 26.9838529,45.3588313 L25.5860841,47 C24.9378435,45.9788284 25.5658266,44.0458963 23.6211048,43.9911907 C22.9728642,43.662957 22.9526067,42.7329614 22.6690014,42.0764939 C22.4056537,42.5141389 22.5879714,43.0794303 22.5271988,43.5900162 C21.8992157,42.9335487 21.9397308,41.9306123 21.6561255,41.0917927 L21.5143229,41.2194391 L21.6561255,43.3347232 C20.9673699,42.4411981 20.6027345,41.4382616 20.5622195,40.3076788 L20.4204169,40.1800323 C20.1368116,40.5629717 20.3191293,41.2194391 20.2583567,41.6206137 C18.2731199,41.1100279 19.3062533,39.1953311 19.0226481,38.0100426 C19.0226481,38.0100426 19.3062533,39.1953311 19.0226481,38.0100426 L19.0226481,38.0100426 L19.0226481,38.0100426 Z M15.7783096,41.0179043 C17.9325089,40.8755625 18.5279181,41.5705021 20,43.513578 C18.7864769,43.513578 17.6316726,44.0526004 16.3985765,44.1723831 C15.8133452,44.4938002 15.8622776,44.9934939 16.0319751,45.5081604 C16.1574377,45.8884707 16.8509075,47.5652296 17.1390214,48.0545421 C17.6191459,48.8698634 17.969306,49.6947673 16.9661922,50.4809414 C16.9074733,49.9818466 17.1423488,49.2831139 16.7508897,48.983657 C16.7117438,49.6424621 16.633452,50.3012673 16.2615658,50.8402897 C16.3790036,50.2014483 16.0658363,49.4028966 15.9875445,48.6842001 L15.8505338,48.8439105 C15.8701068,49.6025346 15.6939502,50.3012673 15.5569395,51 C15.1263345,50.1215931 15.2046263,49.0036208 14.930605,48.0453588 L14.7935943,48.1851053 L14.7935943,50.5607966 C13.9715302,49.1034398 13.7953737,47.1070605 13.3060498,45.529921 C12.9145907,46.867495 13.6975089,48.604345 13.7366548,50.2014483 C12.8558719,48.7041639 12.3469751,46.9872778 11.6814947,45.4500658 L11.544484,45.6097761 C12.1512456,47.2268433 12.8924733,49.4701746 12.9537367,50.3411949 C11.6227758,48.4246708 10.8594306,45.9691244 9,44.372021 C9.72419929,44.6315503 10.8696085,43.2881868 10.9978114,43.1478413 C12.2870819,41.7346045 13.9408007,41.1392842 15.7783096,41.0179043 C15.7783096,41.0179043 13.9408007,41.1392842 15.7783096,41.0179043 L15.7783096,41.0179043 L15.7783096,41.0179043 Z M4.73022312,42.5276649 C4.47464503,42.3145042 4,42.2563695 4,41.8881827 C5.04056795,40.2797881 7.13995943,41.3455918 8.34482759,40.1441404 C9.65922921,39.7565754 10.6815416,40.2797881 11.8133874,40.2216534 C11.8133874,40.2216534 12.600568,40.1125538 13,40.7836226 C11.1196755,41.519996 9.09330629,41.907561 7.61460446,43.7097381 C7.6693712,44.4654898 10.2981744,47.7985486 11.1014199,49 C9.84178499,48.7093263 9.29411765,46.9459056 8.52738337,45.8607237 L8.39959432,45.8607237 C8.21703854,46.3064234 9.7505071,48.302383 10.0425963,48.9418653 C7.52332657,47.2559576 7.35902637,43.9228989 4.73022312,42.5276649 C4.73022312,42.5276649 7.35902637,43.9228989 4.73022312,42.5276649 L4.73022312,42.5276649 L4.73022312,42.5276649 Z M2.62604995,54 C0.600323459,52.3405995 0.779064032,49.2506812 1.49402632,47 C3.79779371,47.3051771 9.19973102,48.1253406 9.71609268,48.2970027 C8.76280962,48.4877384 7.43218536,48.0871935 6.41932211,48.239782 C7.74994638,48.773842 9.35861153,48.6021798 10.7885361,48.9264305 C10.0338537,49.4223433 8.78266969,48.7929155 8.0677074,49.1934605 L8.20672784,49.3269755 L12,49.3269755 C10.0139936,50.0326975 7.86910676,49.5177112 6.06184097,48.9836512 C4.08973664,49.0168392 2.65842186,52.1611172 2.62604995,54 C2.62604995,54 2.65842186,52.1611172 2.62604995,54 L2.62604995,54 L2.62604995,54 Z M8.06041409,58.9354081 C5.73315095,58.6304555 5.17329889,57.7770322 4.59321839,56.2493084 C4.06351069,54.8542611 4.8177145,53.2190267 4.50595842,51.7209099 C3.811845,52.8681831 4.04982674,56.9761615 4.36713573,57.5868069 C2.4077527,56.059083 2.39981998,51.7066615 5.35872634,50 C7.48073022,50.4256014 9.70189317,50.8697071 11.8635607,50.3885925 C12.2205333,50.2220529 12.5775059,50.4441058 12.9344785,50.4626102 C11.7644016,50.7586807 10.4753338,50.7771851 9.50357505,51.591379 C10.8521383,51.5358658 12.2205333,50.9252204 13.6484238,51.0547512 C12.4783469,51.2953085 11.3677654,51.7024054 10.2968475,52.2020244 L10.2968475,52.2575377 C11.8238971,52.0539892 13.4699375,51.3508217 14.996987,51.3323173 C13.8864055,51.9614671 12.3990196,51.9244583 11.4272608,52.7941655 C12.4188514,52.6461302 16.2067275,51.6098834 16.8611773,51.7949275 C15.1953051,52.2575377 13.5294329,52.3685641 12.359356,53.6638726 C13.2914511,53.5343417 17,52.2575377 17,52.2575377 C15.948914,53.682377 14.1640509,53.9969519 12.6568332,54.6631106 L12.6443391,54.8781318 C14.0920614,54.8041142 15.6911004,54.2190048 17,53.4603241 C15.6911004,54.7556326 13.3906102,55.0331987 11.724738,55.865897 C13.4302738,56.0509411 15.3341278,55.1072163 16.8611773,54.589093 C15.5126141,56.0139323 13.7475828,56.6245777 11.8635607,57.0501791 L11.724738,57.457276 C13.3509466,57.1056923 14.7986689,56.6245777 16.2860548,55.7918794 C15.3670486,59.0283002 9.64695905,59.1433976 8.06041409,58.9354081 C8.06041409,58.9354081 9.64695905,59.1433976 8.06041409,58.9354081 L8.06041409,58.9354081 L8.06041409,58.9354081 Z M18.1028242,59.6618188 C17.5586219,59.0334262 18.2153707,57.9759111 18.1728488,57.1858428 C18.166607,57.0695531 17.9077696,57.0516325 17.9077696,57.0516325 L17.2055732,59.1553647 C17.0300241,58.4541206 16.6594204,57.8113136 16.6984313,56.9931955 L16.5618931,56.8568424 C16.5618931,56.8568424 16.5228822,59.1553647 16.7764531,60.0708778 C16.2303004,59.2138017 15.742664,58.4346416 16.1522785,57.3438175 C16.7374422,55.4543543 18.1418351,53.9155131 19.9363371,53 L20.2874353,53.409059 C19.9363371,54.5193622 19.0000752,55.1232112 18.8830424,56.2140354 C19.3316679,55.9802873 20.6395088,54.6383789 20.8866429,54.4116433 C21.1727879,54.1486768 21.4665401,53.963821 21.9063881,54.1103031 C22.4525409,54.3245722 22.9206719,53.7012441 23.310781,53.409059 C24.143859,54.4301483 23.335943,56.2189051 22.7451228,56.9931955 L22.9596828,57.1295485 C23.7008901,56.2724724 24.422592,55.0258162 24.2275374,53.9739501 C25.3467605,54.9940655 23.5497228,57.8902035 23.2670888,58.349908 C23.2126685,58.4381478 23.4863301,58.6489106 23.525341,58.5320366 C24.3640756,57.6749605 24.7346793,56.6230944 24.9882502,55.5127913 C25.2613266,56.6425734 24.6761629,58.2008936 23.7984174,59.2332807 L24.0714938,59.4475497 C24.9297339,58.3177676 25.7879739,57.1100695 25.6319303,55.6491443 C26.8096697,57.0393607 24.8712175,59.2527597 23.8764392,60.7136849 C23.8959447,60.8110799 23.9154501,60.9084749 24.0129774,60.9863909 C24.8127011,60.3046258 25.319843,59.5059867 25.7684685,58.6683897 C25.4563812,61.375971 21.616342,65.3179366 20.5605117,64.9795864 C20.833588,64.6289643 21.7893554,63.9861573 21.9649045,63.3043922 C21.1846863,63.3823082 20.6580389,64.2978213 19.8583152,64.3562583 C20.6970498,63.8498042 21.6918281,63.1875182 22.1209482,62.3109631 L21.9649045,62.1746101 C21.3212244,62.7979381 20.3849625,63.7524092 19.3706788,63.3628292 C20.0143589,63.0122072 20.9896317,62.7784591 21.4187517,61.960341 L21.2627081,61.823988 C20.7945771,62.057736 19.7877055,63.1022001 19.2341406,62.6615851 C19.4487007,62.3888791 20.2094134,62.4278371 20.2094134,61.823988 C19.721777,61.746072 19.1366134,62.4083581 18.6684824,61.960341 C18.7855151,61.0448279 18.9415588,60.1098358 19.3706788,59.3111967 C19.3316679,59.2138017 19.2341406,59.2332807 19.1561188,59.2332807 L18.4539224,60.4214999 C18.4539224,59.3501547 18.9805697,58.4346416 19.0976024,57.4801705 C18.4539224,58.0061036 18.3368896,58.8826587 18.1028242,59.6618188 C18.1028242,59.6618188 18.3368896,58.8826587 18.1028242,59.6618188 L18.1028242,59.6618188 L18.1028242,59.6618188 Z M14.1720547,64.1529754 C14.6101161,64.6610561 15.2124506,64.9809588 15.8695428,64.962141 C16.7456657,65.9030313 17.8773245,66.0912093 19.1550037,65.9783025 C20.1953996,66.5616544 20.8159867,67.8224473 20.9985123,69.0267868 C21.0211455,69.5000546 20.7831321,69.8515712 20.4481976,70.1477635 C19.9708932,70.5698468 17.2567374,72 17.2567374,72 C17.5670309,70.7580249 18.7716999,70.0805839 19.100246,68.819791 C18.7899525,67.7848117 17.3114951,68.1611678 16.5996452,68.0106254 C15.6687647,67.7283583 15.6505121,66.7310147 14.8291469,66.3734764 C14.345454,66.3330181 13.7869257,66.6015482 13.3344447,66.4805497 C13.1552046,66.4327525 12.1460205,65.3573149 12,64.8868698 C12.6023345,64.3411535 13.3324369,63.7013481 14.1720547,64.1529754 C14.1720547,64.1529754 13.3324369,63.7013481 14.1720547,64.1529754 L14.1720547,64.1529754 L14.1720547,64.1529754 Z M6.54451498,67.9696695 C5.81469286,67.2588515 4.86789658,66.9307817 4,66.7120685 C4.78899689,66.3293203 5.69634332,66.0741549 6.54451498,66.3839986 C7.15598758,66.5480336 7.51103618,66.1652854 7.96470939,66.0012505 C9.28627919,65.9647983 10.2922502,66.7302946 11.2390465,67.6415997 C11.7124446,67.9332173 12.1069431,67.2406254 12.5211665,67.5686953 C13.2312637,68.1883827 13.6849369,69.0632356 14.6514581,69.4095316 C15.5982543,69.8834102 18.221669,69.1179139 17.98497,70.922298 C17.4129472,71.9065076 16.8803743,72.7266822 17.1367983,73.9296049 C16.9198241,74.1118659 16.6042254,73.8931527 16.3478014,73.8020222 C16.0519276,73.4739523 16.1111023,72.9453954 15.7166039,72.6902299 C15.5193547,73.054752 15.9138531,73.419274 15.7757786,73.7473439 C15.3221054,73.5650828 15.184031,72.7813605 14.8487073,72.4350645 C14.7895325,72.8907171 15.0065067,73.4010479 15.1445811,73.8749266 C14.7500827,73.7108917 14.2766845,72.161673 13.9413609,72.1069947 C13.901911,72.5444211 13.9610858,73.1094303 14.1386101,73.5468567 C13.5863123,72.9818476 13.8032864,71.9611859 13.2904384,71.3779506 L13.2312637,73.1458825 C12.7184157,72.3621601 12.5803412,71.4144028 12.1661179,70.5942282 L12.0083185,70.5942282 C11.9885936,71.2321418 12.3239172,72.0523164 12.3041923,72.6173255 C11.377121,71.633116 10.9826225,70.3937411 10.1739007,69.4095316 C10.2528004,70.2479323 11.3376711,72.3257079 11.4560207,72.5626472 C9.9963764,71.4690811 9.26655427,69.664697 8.18168354,68.4982265 L8.04360908,68.6258092 L10.2330755,72.161673 C8.47755737,71.3961767 7.98443432,69.300175 6.54451498,67.9696695 C6.54451498,67.9696695 7.98443432,69.300175 6.54451498,67.9696695 L6.54451498,67.9696695 L6.54451498,67.9696695 Z M7.17763158,82.8928842 C3.78289474,81.9451931 3.54605263,77.9372493 1,75.8444314 C2.71710526,75.3508422 4.17763158,75.2521244 5.83552632,74.5018689 C7.25657895,73.7911006 8.67763158,72.9618708 10.0986842,73.001358 C8.99342105,73.5541778 5.875,74.7387917 5.75657895,75.133663 C7.45394737,74.8769967 9.03289474,73.9885362 10.8092105,73.7121263 C8.83078947,76.256677 5.67802632,75.9301184 2.34210526,76.1998155 C2.32236842,76.3182769 2.44078947,76.3380205 2.5,76.4169948 C6.23026316,76.8316096 9.42763158,76.3775076 12.0921053,73.7911006 C11.2088816,75.5399856 6.75368421,77.8487981 5.58151316,78.3716077 C5.47,78.4213615 5.48026316,78.7072483 5.61842105,78.6875048 C8.5,77.9767364 11.0263158,76.4367383 13.2960526,74.2846897 C13.3552632,74.6993046 10.0394737,77.7003265 8.73684211,78.8257097 L8.89473684,78.9836583 C11.2631579,77.99648 12.8223684,75.8049442 14.9934211,74.5018689 L16,74.5018689 C15.8223684,77.2067374 12.4078947,76.3775076 11.875,78.766479 C12.2697368,79.951093 13.3157895,80.7013484 13.8684211,81.8267317 C11.7368421,82.5967307 9.54605263,83.2680119 7.17763158,82.8928842 C7.17763158,82.8928842 9.54605263,83.2680119 7.17763158,82.8928842 L7.17763158,82.8928842 L7.17763158,82.8928842 Z M15.3860911,85 C13.5059952,87.208589 11.3381295,89.2699387 10.0719424,91.8834356 C10.0911271,91.9754601 10.206235,91.9570552 10.263789,91.9570552 C11.9328537,89.5276074 13.9856115,87.3006135 16,85.1288344 C15.0791367,88.809816 11.7985612,92.6564417 8,94 C10.3213429,91.0552147 11.4340528,86.8404908 15.3860911,85 C15.3860911,85 11.4340528,86.8404908 15.3860911,85 L15.3860911,85 L15.3860911,85 Z M23.7053598,86.827201 C23.3276132,87.714806 21.9196315,91.0052945 21.5990668,91.7530429 C20.7960185,93.6261724 19.8329767,95.4358026 18.8010087,97.1746143 C17.5880612,98.1043544 16.3558606,99.4099468 14.7193441,98.8758408 C12.5244867,97.6691569 10.5799201,95.7701134 8,95.532733 C11.8090402,93.7759199 14.9927386,90.8416999 16.6744999,86.985059 C16.905345,86.4557006 17.4340361,85.0088669 17.3570236,84.7714864 C17.8768582,84.6132328 18.2811741,84.8110498 18.8010087,84.6330145 C18.1849084,86.4133678 17.0682266,88.0552492 16.1055698,89.6180037 L16.1825823,89.6971305 C17.7613394,88.2728479 18.6277305,86.4133678 19.705906,84.7121413 C19.2990873,86.7767577 17.5110487,89.8751658 15.3354444,91.6159557 C15.1621662,91.7346459 15.1044068,91.9918081 15.1429131,92.1104983 C18.1656552,90.4290535 19.1475651,87.0068189 20.9573598,84.3560707 C20.2449938,87.2244176 19.128312,90.6268706 16.3751137,92.6050409 C16.3943668,92.7039494 16.3366074,92.8424213 16.4521262,92.9017664 C19.9561968,90.9235961 20.418272,87.0463823 22.131801,84 C22.2858261,84.3165073 22.1510542,84.9890852 21.9970291,85.4242826 C21.6119664,87.0266006 19.3015902,90.9829412 19.0898057,91.6159557 L19.2846474,91.7568015 C21.1714547,89.6401592 22.2473198,87.1452908 22.9019264,84.4945426 C22.9981921,85.800135 22.4783575,87.3431078 22.266573,88.6289185 C22.7479014,88.4113198 23.7105581,85.1473388 23.5180268,84.2769438 C24.1936193,85.1348763 24.0644307,85.9835114 23.7053598,86.827201 C23.7053598,86.827201 24.0644307,85.9835114 23.7053598,86.827201 L23.7053598,86.827201 L23.7053598,86.827201 Z M23.0774989,82.0476589 C23.0203487,81.6451144 23.496601,80.8198981 22.9441483,80.5984986 C22.8488978,81.2828243 22.5631465,81.8866411 22.258345,82.4703307 C22.2011947,81.96715 22.5631465,80.9809159 22.048794,80.6588802 C21.9344934,81.5646055 21.7820927,82.4502035 21.3629906,83.1949109 C21.439191,82.4703307 21.5153914,81.2828243 21.0962893,80.5984986 C20.7724378,80.8601525 20.9629387,82.9735114 20.6009869,83.557201 C20.2771353,82.9936386 20.4485862,82.1684223 19.9151836,81.6853688 C19.7056326,82.2690584 20.1628348,82.9131297 20.0675843,83.6377099 C19.3436808,83.1546564 18.772178,82.1482951 18.4102263,81.3834604 C18.2768756,82.2891857 19.0579294,82.9735114 19.17223,83.8591094 C18.2006753,83.0942748 17.7053729,82.2690584 17.1719703,81.1821882 C17.0767198,81.1419337 17.0386196,81.2626971 16.9814693,81.3230788 C17.4005714,82.1080406 17.4958218,83.0137659 17.933974,83.7786005 C16.4671168,83.3760559 16.0099146,81.786005 15.1907606,80.7393892 L15.05741,80.8802797 C15.3812616,82.0476589 16.1242152,83.0942748 16.905269,84 C15.1526605,82.8326208 14.0668052,81.0211703 13,79.2902288 C13.8572542,78.5253941 14.9431094,76.9755976 16.4290167,77.3982694 C17.6672727,77.0561065 17.9720742,74.7817298 19.5151316,75.7478368 C20.3914359,75.0836383 21.7820927,74.5402031 22.6012466,75.5868189 C23.5347012,76.7743254 22.9631984,78.3241219 23.8966529,79.5116283 C24.2395546,80.5381169 23.6680518,81.4639693 23.0774989,82.0476589 C23.0774989,82.0476589 23.6680518,81.4639693 23.0774989,82.0476589 L23.0774989,82.0476589 L23.0774989,82.0476589 Z M24.2605561,76 L24.9971947,76.0794702 C25.0340266,77.0728477 24.7025393,78.1059603 24.33422,79 C23.5791654,78.1854305 24.3526359,77.0331126 24.2605561,76 C24.2605561,76 24.3526359,77.0331126 24.2605561,76 L24.2605561,76 L24.2605561,76 Z M25.9946355,79.5451064 L25,80 L25.5559836,79 C25.632671,79.0638298 26.0519593,79.3748936 25.9946355,79.5451064 C25.9946355,79.5451064 26.0519593,79.3748936 25.9946355,79.5451064 L25.9946355,79.5451064 L25.9946355,79.5451064 Z M26.2105907,80 C26.0953589,79.7826087 25.8456901,79.3913043 26.1337695,79.1521739 L26.3450278,79 C26.613902,79.3043478 26.3857431,79.6928261 26.2105907,80 C26.2105907,80 26.3857431,79.6928261 26.2105907,80 L26.2105907,80 L26.2105907,80 Z M27.0827491,78.6111111 L26.381322,79 C25.4640711,78.1666667 26.5252045,77.037037 26.2554248,76 C26.8309548,76.1481481 27.4964113,76.2777778 28,76.4074074 C27.5503672,77.0185185 27.0108079,77.7037037 27.0827491,78.6111111 C27.0827491,78.6111111 27.0108079,77.7037037 27.0827491,78.6111111 L27.0827491,78.6111111 L27.0827491,78.6111111 Z M27.8464475,93.9681621 C26.3081957,91.6917511 24.3469247,89.2460203 25.2121914,86.3863965 C25.5967543,87.4775687 25.7698076,88.8509407 26.6735305,89.829233 L26.6735305,89.1519537 C25.942861,87.6280753 25.4429291,85.5209841 26.2505113,83.8842258 C25.8274921,85.7655572 26.8273557,87.3835022 27.3657438,89.0202605 L27.8464475,89.6410999 C28.3079231,89.0578871 27.3080594,88.4746744 27.2311468,87.7973951 C26.6927587,86.3299566 26.3851083,84.5050651 27.2311468,83 C26.9234965,84.8060781 27.2696031,86.9696093 28.4617482,88.6251809 C29.7056171,89.1229812 29.8273312,90.0884805 29.8655953,91.1331838 C29.8794395,91.5094501 29.7692622,94.7583213 30,96 C29.2501023,95.5861071 28.4232919,94.7206946 27.8464475,93.9681621 C27.8464475,93.9681621 28.4232919,94.7206946 27.8464475,93.9681621 L27.8464475,93.9681621 L27.8464475,93.9681621 Z M33,120 C32.15,119.132787 31.2833333,118.077049 30.8333333,117.021311 C30.8833333,114.155738 30,97.2639344 30,97.2639344 C30.2333333,97.5844262 30.55,97.5278689 30.8333333,97.3393443 L31.1333333,97 C31.4233333,101.117 31.873,116.693656 33,120 C33,120 31.873,116.693656 33,120 L33,120 L33,120 Z M33.6372929,93.942703 C33.4898171,94.1623731 31.9335991,96.8286802 31.1930466,97 C30.4313355,93.1548223 32.1451855,89.5380711 32.5048824,85.9593909 C32.6106756,84.4175127 31.8278059,83.2182741 31.1295707,82 C33.3089107,83.9416244 33.0126898,86.9873096 32.5683583,89.4619289 C32.8341108,89.5114213 32.940962,89.3823604 33.0027452,89.1954315 C33.0835712,88.9508249 33.7320836,85.1218274 33.1819589,83.5609137 C34.7265397,85.4454315 34.1129391,87.5583756 33.7109249,89.7284264 L33.8590354,89.8807107 C34.6207465,88.4911168 34.9381261,86.8540609 34.7900156,85.2170051 C35.7209958,87.2347716 35.1497125,89.7093909 33.7955595,91.3845178 L33.94367,91.5177665 C35.1497125,90.5088832 35.6998372,89.0050761 35.8479477,87.4822335 C36.4905356,88.9883249 34.970922,91.9557741 33.6372929,93.942703 C33.6372929,93.942703 34.970922,91.9557741 33.6372929,93.942703 L33.6372929,93.942703 L33.6372929,93.942703 Z M47.5825288,92.5408838 C44.5205853,94.3531398 38.7828394,90.4268037 35.7959017,87.2762923 C35.7363732,86.4519435 34.9533761,85.7922771 35.0021894,85.0468034 C35.8951157,86.2833267 37.2245837,87.3887035 38.7921655,88.1568468 L38.9310651,88.0257004 C37.3436406,86.8453827 35.6966876,85.384037 35.141089,83.5667225 C36.0209191,84.6177673 37.2093048,85.3926552 38.2506553,86.363326 C38.3601876,86.4654328 38.5738946,86.3395323 38.4945234,86.2083859 C37.303955,85.103009 35.8951157,84.0913082 35.3593599,82.5550217 C36.4903999,83.8102802 37.7603395,84.821981 39.149336,85.7962115 L39.2882356,85.6650651 C38.018296,84.353601 36.6094567,83.1545481 35.5776308,81.6744672 C36.3118146,81.46838 37.0063129,82.2552585 37.502383,82.6299625 C39.2088644,85.0280682 41.51063,86.9390587 44.2886229,87.4074387 C44.1894089,86.8266475 42.1428218,86.2003297 41.6439736,85.8527918 C39.9686455,84.6857761 38.3421306,83.203447 37.3634834,81.5433208 C38.7921655,82.0491713 39.5461921,83.5292521 40.7169177,84.3161306 C41.51063,84.7845106 43.2873549,86.0420173 45.8562047,86.4706787 C45.5982482,86.0585043 43.1881409,85.4799613 41.6483391,84.2767867 C40.5480554,83.4245224 39.4483671,82.4216271 38.4349949,81.3372336 C39.8041486,81.3372336 40.5581753,82.5737569 41.4312588,83.3606353 C43.0980545,85.0280682 45.0823352,85.2716258 47.0666159,86.2083859 L47.5031576,86.1334451 C46.1736896,85.1217442 44.4076798,84.821981 42.9988405,83.8477506 C42.2448138,83.0983425 41.2328307,82.6486977 40.7169177,81.6744672 C41.3717303,81.5995264 44.9831212,83.9976322 46.1538468,84.7095698 C46.4118032,84.6158938 46.1736896,84.447277 46.1538468,84.3161306 C44.9037499,83.1545481 43.356011,82.1053769 41.8678005,81.2060872 L41.9273289,81 C44.5267366,81.655732 46.8086594,83.5667225 47.8603281,85.9273579 C48.1579702,88.0444356 47.9396994,90.4425413 47.5825288,92.5408838 C47.5825288,92.5408838 47.9396994,90.4425413 47.5825288,92.5408838 L47.5825288,92.5408838 L47.5825288,92.5408838 Z M51.8464832,86.3513704 C50.7488027,86.689495 49.595308,87.186737 48.4976275,86.9281711 C48.2185562,86.5104878 47.6507391,84.6883942 47.4609706,84.3655846 C46.2403127,82.2898975 44.0830915,80.5596942 42.1348017,79.767886 C42.0231732,79.4695408 41.9859637,79.0916369 42.0045685,78.833071 C43.8464391,81.1800534 46.6371521,81.7767438 49.1673987,82.4927723 C49.2232129,82.4132136 49.3348414,82.3734342 49.2976319,82.2739858 C44.4300702,80.6006669 43.403832,79.7251232 42.2209417,77.91556 L42.3952683,77.6794695 C44.2371389,79.1115265 46.4883141,80.1656796 48.7022798,80.4043558 C49.6139128,80.5634732 50.953455,80.7225907 51.8464832,80.5435836 L51.7720642,80.3446868 C48.7580941,80.0662312 45.892962,79.3899821 43.474344,77.6198005 C46.3394761,78.335829 49.0743749,79.3502027 52.1813688,78.833071 C52.1102986,78.5800743 51.9692746,78.5273666 51.8031341,78.545864 C51.5774585,78.5711239 50.4769873,78.6880752 50.1748461,78.6564506 C48.2228353,78.4525814 46.5439423,77.5066282 44.7394673,76.903772 C46.5627331,77.0032204 48.3301847,77.5402418 50.2464744,77.5402418 C49.8557746,77.0827791 46.5627331,76.2673022 45.4836574,76.1081847 C46.5627331,75.7103911 50.2836839,76.525868 50.7674075,76.6849855 C52.3860211,77.0628894 54.2092869,76.9236616 55.86511,76.5457577 C56.1627861,76.525868 56.6465097,76.2673022 57,76.5457577 C56.7581382,80.2850177 55.2325484,84.3027333 51.8464832,86.3513704 L51.8464832,86.3513704 Z M51.8464832,86.3513704" id="15" fill="#000000" sketch:type="MSShapeGroup"></path>
    </g>
</svg>