<?xml version="1.0" encoding="UTF-8" standalone="no"?>
<svg width="91px" height="75px" viewBox="0 0 91 75" version="1.1" xmlns="http://www.w3.org/2000/svg" xmlns:xlink="http://www.w3.org/1999/xlink" xmlns:sketch="http://www.bohemiancoding.com/sketch/ns">
    <title>Slice 1</title>
    <description>Created with Sketch (http://www.bohemiancoding.com/sketch)</description>
    <defs></defs>
    <g id="Page-1" stroke="none" stroke-width="1" fill="none" fill-rule="evenodd" sketch:type="MSPage">
        <g id="Imported-Layers-copy" sketch:type="MSLayerGroup" transform="translate(46.000000, 35.500000) scale(-1, 1) rotate(-184.000000) translate(-46.000000, -35.500000) translate(1.000000, -1.000000)" fill="#000000">
            <path d="M88.0008387,34.9479734 C90.5641935,32.2306649 90.3220645,26.3062101 88.9981935,21.6742048 C88.3490323,18.3185346 81.6555484,10.1631144 74.901871,13.2850293 C73.4189032,13.6539122 72.1174839,14.5638883 70.6033548,14.2301463 C69.2446452,13.5364521 69.1383871,12.5822101 69.4244516,11.630492 C70.8379355,9.24925532 73.0981935,6.97052926 75.6754839,5.77146543 C79.4562581,3.96704521 84.0495484,3.49293351 87.5429032,1.34273404 C85.1893548,1.26468617 82.5390968,0.980257979 80.0707742,0.287534574 C78.48,-0.533715426 77.0669032,0.898132979 75.5436774,1.17091223 C74.508,1.81820479 73.2294194,1.2045 72.1935484,1.85179255 C71.1979355,3.54477128 69.1296774,3.61019947 67.5185806,3.33237234 C63.7434194,2.69323404 59.2741935,0.809601064 55.2427742,2.17718617 C54.6872903,1.65783777 53.5513548,1.94071277 53.1418065,1.08859309 C52.332,0.427904255 50.9992258,0.401888298 50.0868387,0.824162234 C48.5094194,1.68463032 46.7504516,2.00400532 45.0174194,2.40298138 C43.9753548,2.67653723 43.0829032,3.50458245 42.494129,4.19730585 C42.6756774,4.50503191 43.0883226,4.12760638 43.3676129,4.36388564 C42.5347742,5.09602128 42.2502581,5.36239362 41.9506452,6.54728457 C41.643871,7.75993883 41.829871,9.04462234 41.3641935,10.2863989 C41.2283226,10.4642394 41.0810323,10.5789814 41.0533548,10.7640053 C42.7422581,10.097492 44.6212258,10.7822553 46.3879355,11.2884016 C46.3664516,11.6137952 41.1032903,16.1372713 39.1449677,18.5449122 C38.3204516,19.5175984 37.0558065,19.6362234 35.9363226,19.6711702 C34.0978065,19.783 32.5852258,18.9510718 31.188,18.0181862 C31.1090323,18.2775691 31.7988387,19.3504362 31.4641935,19.7175718 C29.2834839,19.3706277 27.393871,18.1403059 25.4928387,17.080641 C24.9919355,16.6738989 24.6816774,16.202117 24.0563226,16.0361197 C23.751871,15.4367819 23.1116129,15.8004229 22.6749677,15.6029734 C22.56,15.5509415 21.8870323,14.3359574 21.4585161,14.0117287 C20.0227742,14.134625 19.4214194,12.8963431 18.2562581,12.4455293 C17.6680645,12.4222314 17.1812903,12.7480133 16.7096129,13.074766 C16.3770968,13.1772766 13.2658065,12.1150878 12.0733548,12.3164202 C11.5006452,12.2940931 11.4116129,12.9419681 11.2769032,13.3376436 C10.9165161,13.6251782 10.626,13.5591676 10.239871,13.7671011 C8.1296129,14.0010505 5.94619355,14.1678245 4.16612903,15.2795213 C4.53058065,16.580125 2.71993548,16.5069309 2.07251613,17.3823484 C1.98116129,17.8277261 2.46658065,18.2334973 2.65645161,18.6509176 C2.85483871,19.6445718 1.52109677,19.8676489 1.02929032,20.5042633 C0.69716129,21.3072633 1.18683871,21.8844681 1.22632258,22.6965931 C0.704516129,23.315734 0.417870968,24.3707394 0.374322581,25.2708138 C0.549677419,25.6715372 1.16477419,25.9922713 0.980709677,26.4316303 C0.685548387,27.3771356 0.64316129,28.4950452 0.113225806,29.2382473 L3.03832258,30.7704707 C3.6,31.1968218 3.59632258,31.9592447 3.5883871,32.550234 C3.9236129,33.3928404 3.50554839,34.3010691 3.24503226,35.2063856 C3.1743871,35.4521782 3.21929032,36.5106782 3.30909677,36.7968537 C3.18541935,37.2649468 3.50748387,37.7419707 3.61006452,38.2022979 C3.66154839,38.4337234 3.03503226,39.7828644 3.41845161,40.3218218 C3.99541935,40.5157766 4.58903226,40.9285372 4.89309677,41.4935106 C5.45845161,42.2895213 5.60670968,43.5099415 6.13180645,44.4645718 C6.25335484,44.6853191 7.38425806,45.6121862 7.55458065,46.090375 C7.90083871,46.4868271 7.50367742,47.0987846 7.3503871,47.539891 C6.89767742,48.0547739 6.22741935,48.3372606 5.70541935,48.7230346 C6.45522581,48.8816543 7.06625806,49.0309548 7.73883871,49.1845266 C7.73883871,49.1845266 8.82967742,49.1165745 9.30658065,49.1792846 C10.2390968,49.8636596 11.1265161,50.7629574 11.9405806,51.5950798 C12.1645161,52.2016011 12.0404516,52.9092739 12.0901935,53.5662739 C12.0901935,53.5662739 13.6741935,51.6632261 14.4634839,50.7503378 C15.5732903,51.5710053 15.2088387,53.336984 15.7234839,54.47625 C16.0567742,55.3077899 16.6856129,56.1276809 17.6177419,56.1115665 C18.5591613,56.1894202 19.3409032,56.3346436 19.8522581,57.0531888 C19.9184516,57.4624548 19.4295484,57.8191064 19.2267097,58.0703351 C19.9141935,58.7073378 20.8403226,59.0175878 21.5225806,59.73225 C21.8732903,60.3001356 22.2207097,60.914617 22.2427742,61.5232739 C22.2365806,61.6162713 24.1350968,62.0065106 24.6145161,62.7386463 C25.112129,62.9584229 25.6374194,62.9931755 26.0810323,62.6178856 C26.6051613,62.434609 26.8608387,62.7939787 27.3522581,62.8731915 C27.9989032,62.7137952 28.0726452,63.7148271 28.6877419,63.8021941 C29.5428387,64.2479601 30.4244516,64.0573059 31.3267742,64.2570851 C32.4402581,64.3153298 32.9281935,65.6238936 34.1651613,65.4567314 C34.2704516,65.9774388 33.7306452,66.6453112 33.9836129,66.611141 C35.3163871,66.431359 36.7554194,66.3562234 37.3153548,64.980484 C37.9012258,64.5679176 38.7147097,64.2326223 39.1910323,63.5948431 C39.8763871,62.6128378 38.7911613,61.653742 38.7750968,60.7187207 C39.915871,59.8914521 39.9425806,58.3056436 40.0683871,57.0997846 L40.1694194,53.9155479 C40.4955484,53.3247527 41.1172258,53.0129495 41.5453548,52.5118511 C41.6723226,52.3633271 42.8549032,49.6570851 43.2598065,48.4541383 C44.1054194,49.9888856 44.6812258,51.84825 45.8523871,53.389016 L46.3395484,53.5301622 C48.0822581,55.1087872 48.6679355,57.5290479 48.615871,59.7359388 C49.059871,61.2438936 50.0237419,62.6308936 50.2182581,64.1536037 C50.9382581,65.7110665 50.0260645,67.7832181 51.8713548,68.7460027 C52.9525161,70.0005931 53.823871,71.3813803 54.7496129,72.6410186 C55.1607097,72.7617793 55.4872258,72.752266 55.9083871,72.7179016 C56.9649677,72.4608484 58.4316774,72.807016 59.538,72.7402287 C60.1290968,72.717125 60.6102581,72.9512686 61.1096129,72.6730532 C62.774129,72.8454574 64.2896129,71.7473511 65.8981935,71.3557527 C66.6427742,71.3582766 67.1655484,70.4900426 67.7976774,70.3139495 C69.1668387,69.3150532 70.3052903,68.2852872 71.0490968,66.8870266 C71.3928387,66.380492 71.586,65.801734 71.9905161,65.3148085 C73.6056774,65.2600585 74.5556129,64.5725771 75.4081935,63.8629628 C76.8274839,62.6819548 77.3167742,60.8928723 78.0168387,59.3319149 C78.3092903,59.1334947 78.7120645,59.1445612 78.8920645,58.7673298 C79.5185806,57.7348457 79.2652258,56.1614628 80.3514194,55.4549548 C80.8428387,54.3512181 81.0112258,53.2105931 81.3481935,52.0965665 C82.83,51.5098484 82.3261935,49.7331915 83.7203226,49.0626011 C83.9204516,48.1419468 84.4470968,47.2117793 84.6371613,46.2126888 C84.9892258,45.8137128 84.9394839,44.8400559 85.5822581,44.8342314 C85.674,44.8334548 86.3394194,44.3950665 86.5577419,44.1450027 C86.9384516,43.5476064 86.6214194,42.2347713 87.5347742,42.0305266 C88.9970323,41.7381383 88.0763226,40.1674734 88.2785806,39.2157553 C89.7319355,37.8798165 87.8595484,36.3862287 88.0008387,34.9479734 C88.0008387,34.9479734 87.8595484,36.3862287 88.0008387,34.9479734 L88.0008387,34.9479734 L88.0008387,34.9479734 Z M48.7561935,2.41715426 C49.506,1.98808511 50.439871,1.4135984 51.3841935,1.44407979 C51.6989032,1.45417553 52.5265161,1.95061436 52.5265161,1.95061436 C52.1703871,2.17621543 51.873871,2.4367633 51.6371613,2.73225798 C52.1109677,2.84156383 52.5269032,2.4177367 52.9954839,2.37075266 C53.3670968,2.14651064 53.7414194,2.5915 54.0431613,2.72041489 C54.2750323,2.96911968 54.296129,3.59330851 54.7759355,3.37605585 C58.6498065,2.4082234 60.2595484,2.34628989 62.685871,2.85670745 C64.6356774,3.26675 66.5490968,3.76202394 68.5213548,4.13032447 C69.7647097,4.33709309 70.9887097,3.65543617 72.2535484,3.53681117 C73.3501935,3.14249468 74.2438065,2.76584574 75.3044516,2.21349202 C77.0452258,0.990159574 79.2234194,2.31716755 80.6628387,3.08192021 C80.1143226,3.63699202 79.4136774,3.43488298 78.7269677,3.73193085 C74.4489677,5.00185904 70.8063871,7.44813564 68.3150323,11.5103138 C67.887871,12.1047979 67.2001935,12.4171835 66.5419355,12.2803085 C68.865871,9.50766755 70.7547097,6.27062234 73.8894194,4.14333245 C74.5554194,3.45585106 75.6106452,3.29645479 76.2189677,2.54276862 L75.7412903,2.41365957 C74.1092903,3.39508245 72.6526452,4.31049468 71.1247742,5.36122872 C67.8358065,6.52864628 64.5309677,6.76143085 61.8671613,9.51135638 C61.1148387,10.3331888 60.7035484,11.3955718 60.1652903,12.2628351 C58.9513548,14.4394388 56.3204516,15.2769973 54.8109677,17.2316888 C55.1146452,18.6681968 55.0120645,19.5869096 54.8595484,20.1212074 C53.8424516,23.6867527 53.5110968,21.9401888 50.9847097,25.3838085 C51.0114194,23.5644388 51.9383226,21.9757181 52.9076129,20.6857926 C53.6380645,19.4888644 53.8136129,18.4730771 53.9847097,17.0524894 C53.8989677,16.7043803 53.7431613,16.2426941 53.3785161,16.1250399 L53.1973548,16.284242 C54.3336774,16.9305638 51.7047097,19.4589654 50.139871,20.6976356 C49.8503226,20.9267314 48.8688387,21.6947846 48.5909032,21.9099016 C48.7589032,20.5355213 50.9965161,17.4114707 51.2758065,17.0837473 C51.7494194,16.5280931 54.2429032,15.2484574 54.8142581,14.8191941 C56.8654839,13.7040027 58.2549677,11.9195798 59.6682581,10.1518537 C59.9959355,9.74200532 61.7243226,7.70790691 62.1263226,7.3817367 C63.5448387,6.23101596 65.3709677,5.81806117 67.0978065,5.4837367 C65.7507097,4.09615426 59.5854194,2.35289096 55.5367742,4.54696809 C55.3227097,4.73529255 55.0714839,4.7807234 55.0056774,5.07214096 C54.8200645,7.8935133 50.3632258,10.6785798 48.4263871,10.0223564 C51.2171613,9.11742819 53.2062581,6.47855585 55.1030323,4.30039894 C55.0927742,4.22196277 55.1614839,4.11751064 55.0709032,4.08042819 C54.7610323,4.07538032 54.5376774,4.40310372 54.2545161,4.462125 C53.4677419,4.86148936 52.6631613,4.59045745 51.9282581,5.14863564 C50.8163226,6.00910372 49.5522581,6.82802394 48.1327742,6.70299202 C47.7538065,6.80239628 47.2246452,7.0631383 46.9525161,6.95189096 C47.9847097,5.41675532 49.9289032,4.87624468 50.972129,3.4044016 L50.8712903,3.28868883 C49.8127742,3.81017287 48.5552903,3.82026862 47.3667097,3.9594734 L44.0984516,3.63407979 C45.2161935,2.44724734 47.3765806,3.33742021 48.7561935,2.41715426 C48.7561935,2.41715426 47.3765806,3.33742021 48.7561935,2.41715426 L48.7561935,2.41715426 L48.7561935,2.41715426 Z M55.7289677,17.8995612 C55.8872903,17.6143564 55.9242581,17.2899335 56.1733548,17.041617 C57.1536774,16.7641782 63.7230968,14.0858936 66.2214194,13.613141 C65.9510323,14.1868511 65.5434194,14.7201782 65.1658065,15.2709787 C63.4366452,17.0812234 62.2006452,19.3312154 60.1583226,20.7279229 C59.8387742,20.9465346 54.7767097,23.1755585 53.3237419,23.7952819 C54.8388387,22.2300532 56.1630968,20.2631303 55.7289677,17.8995612 C55.7289677,17.8995612 56.1630968,20.2631303 55.7289677,17.8995612 L55.7289677,17.8995612 L55.7289677,17.8995612 Z M57.8800645,15.6293777 C58.8137419,14.8817101 59.666129,14.1909282 60.501871,13.2811463 C61.5491613,13.1636862 62.9878065,12.7608271 63.9687097,13.1838777 C62.3965161,14.2004415 58.2570968,15.5608431 57.8800645,15.6293777 C57.8800645,15.6293777 58.2570968,15.5608431 57.8800645,15.6293777 L57.8800645,15.6293777 L57.8800645,15.6293777 Z M65.5519355,11.9968511 C65.2122581,12.2076968 62.6895484,11.6361223 61.854,11.3627606 C62.1656129,10.6362553 62.7069677,10.1895186 63.1999355,9.53717819 C65.2465161,8.14726596 67.3110968,7.42794415 69.6859355,6.94703723 C68.1708387,8.51226596 66.9350323,10.3137739 65.5519355,11.9968511 C65.5519355,11.9968511 66.9350323,10.3137739 65.5519355,11.9968511 L65.5519355,11.9968511 L65.5519355,11.9968511 Z M35.6417419,55.7483138 C35.3444516,56.2577606 35.0245161,56.6412048 34.7158065,57.0877473 C35.4354194,54.8785266 36.8682581,50.5526941 36.8682581,50.5526941 C36.945871,49.0616303 37.0300645,47.6979282 37.1719355,46.3773271 C37.3515484,44.7027926 37.6236774,43.0971809 38.091871,41.3876995 C38.7913548,39.9552686 38.9415484,38.1440532 40.3714839,37.164766 C40.9312258,36.2054761 40.4945806,34.822359 41.0429032,33.800359 C41.2296774,34.4975479 40.9275484,35.3180213 41.1247742,36.0938404 L41.5858065,35.6884574 C41.9123226,37.0954548 40.5648387,38.0025186 40.0885161,39.1072261 C39.0545806,40.9065984 38.8693548,42.5442447 38.4996774,44.3876888 C38.3283871,45.3415426 37.4467742,53.3148511 35.6417419,55.7483138 C35.6417419,55.7483138 37.4467742,53.3148511 35.6417419,55.7483138 L35.6417419,55.7483138 L35.6417419,55.7483138 Z M36.3495484,55.8418936 C35.8482581,58.0346117 34.2265161,61.927492 34.2265161,61.927492 C33.6547742,60.0061941 34.5383226,58.1345984 35.7340645,56.7039149 C35.9667097,56.4701596 36.2045806,56.1589388 36.3495484,55.8418936 C36.3495484,55.8418936 36.2045806,56.1589388 36.3495484,55.8418936 L36.3495484,55.8418936 L36.3495484,55.8418936 Z M25.3921935,51.8631995 C24.3365806,52.1045266 23.3688387,52.6630931 22.5224516,53.0273165 C24.0234194,50.2626356 26.9647742,51.5469309 29.0883871,49.9286995 C31.1353548,48.7721543 33.1871613,47.5383378 34.6339355,45.5949069 C34.0759355,47.2391543 32.8530968,48.6057686 31.7684516,49.997234 C29.8546452,51.2557074 27.5167742,51.6457527 25.3921935,51.8631995 C25.3921935,51.8631995 27.5167742,51.6457527 25.3921935,51.8631995 L25.3921935,51.8631995 L25.3921935,51.8631995 Z M29.8887097,51.4448085 L29.8157419,51.8565984 C28.5812903,52.6931862 23.9223871,54.863383 23.6676774,55.904992 C23.6388387,56.1053537 23.6843226,56.357359 23.5813548,56.5062713 C22.826129,55.9581888 22.3918065,55.0111303 22.3449677,54.0741676 C23.4257419,53.0981809 24.7896774,52.6293112 26.0845161,52.449141 C26.252129,52.4258431 28.934129,51.8018484 29.8887097,51.4448085 C29.8887097,51.4448085 28.934129,51.8018484 29.8887097,51.4448085 L29.8887097,51.4448085 L29.8887097,51.4448085 Z M26.3860645,50.2010904 C24.9596129,50.1845878 23.7025161,51.128734 22.2503226,51.2659973 C23.4623226,50.7703351 24.6989032,50.1360505 25.7343871,49.2551968 C27.9832258,48.096516 30.4678065,47.1248005 32.5637419,45.4580319 C32.9125161,45.1073989 33.3284516,44.6835718 33.5444516,44.2310106 C34.8284516,43.5843005 35.1292258,42.3122367 35.7001935,41.1826782 L36.3727742,41.1026888 C35.9829677,42.0730452 35.8188387,43.1517367 35.1737419,43.9962846 C33.1579355,47.0382101 29.8923871,49.265875 26.3860645,50.2010904 C26.3860645,50.2010904 29.8923871,49.265875 26.3860645,50.2010904 L26.3860645,50.2010904 L26.3860645,50.2010904 Z M20.7137419,51.506742 C20.3448387,50.9840931 20.0930323,50.3292287 19.8855484,49.7085346 C19.8855484,49.7085346 22.8476129,48.083508 24.4285161,47.8767394 C23.3330323,48.4890851 20.7137419,51.506742 20.7137419,51.506742 L20.7137419,51.506742 L20.7137419,51.506742 L20.7137419,51.506742 Z M21.0474194,57.5214761 C20.5165161,56.8636995 21.2537419,56.2744574 21.3418065,55.6421144 C22.7067097,56.1216622 21.4681935,57.0201835 21.0474194,57.5214761 C21.0474194,57.5214761 21.4681935,57.0201835 21.0474194,57.5214761 L21.0474194,57.5214761 L21.0474194,57.5214761 Z M14.0256774,33.583883 C13.7663226,33.753375 13.3273548,33.5840771 13.0618065,33.8467606 C13.0935484,35.0163138 13.98,39.2310931 14.5277419,40.3412367 C14.0190968,40.525484 13.4494839,40.4567553 13.0316129,40.9116463 C12.1323871,39.2487606 12.1625806,36.9005293 12.8537419,35.1250372 L12.1501935,34.8986596 C11.3436774,36.308375 11.9980645,40.3451197 12.0580645,40.6136277 C11.5705161,40.005359 10.4754194,39.9016835 10.484129,39.0617952 C10.4072903,38.1071649 10.9840645,35.9095931 11.0415484,35.7422367 L10.653871,35.5397394 C10.5046452,35.6855452 9.77709677,38.2523883 9.48716129,38.886867 C9.07103226,38.843766 8.66516129,38.645734 8.33129032,38.5302154 C8.178,37.3214441 8.83858065,36.2445 9.33948387,35.2347314 C8.38064516,33.770266 10.628129,33.8102606 11.1085161,32.8769867 L11.0074839,32.7612739 C9.29303226,33.5817473 5.47316129,30.791633 5.01774194,30.4035293 C5.36535484,29.834867 7.0376129,27.5330372 7.38,26.8086676 C7.74116129,27.6885505 8.62432258,28.4164149 8.32006452,29.5015133 C8.17432258,30.3012128 11.1733548,32.8346622 12.2504516,32.5011144 C12.3909677,31.7788803 13.376129,32.3733644 13.8857419,32.1735851 C14.8896774,31.5394947 13.8969677,30.3530505 14.5720645,29.5261702 C14.9260645,29.0980718 15.453871,28.5744521 15.5057419,28.8565505 C15.72,30.0224149 15.48,31.4235878 14.5625806,32.2650293 C14.2300645,32.6011011 13.9389677,33.0175505 14.0256774,33.583883 C14.0256774,33.583883 13.9389677,33.0175505 14.0256774,33.583883 L14.0256774,33.583883 L14.0256774,33.583883 Z M5.8256129,34.1616702 C5.88445161,34.445516 6.12851613,34.5086144 6.05980645,34.8464335 C5.38625806,34.9419548 4.73845161,35.1170771 4.13109677,35.388109 C4.30683871,34.83925 5.6636129,33.7927872 5.8256129,34.1616702 C5.8256129,34.1616702 5.6636129,33.7927872 5.8256129,34.1616702 L5.8256129,34.1616702 L5.8256129,34.1616702 Z M4.34419355,32.1489282 C5.01270968,32.3644335 4.94748387,33.1227793 5.36787097,33.570875 C5.19909677,33.7776436 4.82922581,33.7376489 4.56154839,33.797641 C4.40980645,33.2740213 4.3496129,32.538391 4.34419355,32.1489282 C4.34419355,32.1489282 4.3496129,32.538391 4.34419355,32.1489282 L4.34419355,32.1489282 L4.34419355,32.1489282 Z M40.1587742,30.1575426 C40.2658065,29.730609 41.6489032,28.1279096 41.6489032,28.1279096 C41.2877419,29.8294309 40.5611613,31.1610984 40.2371613,32.6673059 C40.1372903,33.1313218 40.032,35.1030984 39.9975484,35.6401144 C39.9594194,36.2328511 39.7759355,36.7471516 38.9994194,36.7937473 C39.4668387,34.8788564 40.0573548,30.5615665 40.1587742,30.1575426 C40.1587742,30.1575426 40.0573548,30.5615665 40.1587742,30.1575426 L40.1587742,30.1575426 L40.1587742,30.1575426 Z M36.1749677,36.559992 C36.3795484,35.8107713 36.5891613,34.9840851 36.878129,34.3651383 C37.5280645,32.9761968 38.6405806,31.6332686 39.6532258,30.3928511 C39.4633548,31.1585745 39.3989032,31.9015824 39.1583226,32.726133 C38.6370968,34.2791303 37.2350323,35.3071489 36.1749677,36.559992 C36.1749677,36.559992 37.2350323,35.3071489 36.1749677,36.559992 L36.1749677,36.559992 L36.1749677,36.559992 Z M37.3339355,32.0211782 C37.1560645,32.2225106 37.0045161,32.435492 36.9265161,32.6873032 C36.242129,33.6535824 33.8955484,39.366609 33.2012903,40.9549415 C32.8062581,41.5358351 32.3690323,42.28525 31.8522581,42.8269255 C31.6099355,42.4995904 32.0250968,41.4133271 32.1061935,41.3007207 C33.0348387,40.0104069 34.2772258,37.0896303 34.4376774,36.724242 C35.240129,34.8965239 35.9562581,33.0955984 37.0110968,31.4008723 C38.13,29.0155585 40.0517419,26.9325346 42.5175484,25.7726888 C41.6868387,27.7879548 37.6945161,31.6124947 37.3339355,32.0211782 C37.3339355,32.0211782 37.6945161,31.6124947 37.3339355,32.0211782 L37.3339355,32.0211782 L37.3339355,32.0211782 Z M35.3576129,36.9574149 C35.331871,38.5573963 35.3852903,40.0721463 34.7179355,41.724742 C34.5793548,42.1825452 32.7946452,42.8892473 32.7946452,42.8892473 C33.0611613,42.3776649 33.5684516,41.7420213 33.7534839,41.0537633 C34.3983871,39.7422872 34.5930968,38.198609 35.3576129,36.9574149 C35.3576129,36.9574149 34.5930968,38.198609 35.3576129,36.9574149 L35.3576129,36.9574149 L35.3576129,36.9574149 Z M27.7796129,41.0473564 C28.9300645,41.0145452 30.1300645,41.1718059 30.9648387,41.9276277 L30.8959355,42.0320798 C29.7785806,42.2693298 28.6364516,42.411641 27.4530968,42.4733803 C27.561871,41.9981037 26.8569677,41.157633 27.7796129,41.0473564 C27.7796129,41.0473564 26.8569677,41.157633 27.7796129,41.0473564 L27.7796129,41.0473564 L27.7796129,41.0473564 Z M26.7919355,41.7228005 C26.8662581,41.894234 25.7059355,42.1398324 25.4196774,42.0118883 C25.1206452,41.6030106 24.7381935,41.0485213 25.1910968,40.5336383 C25.6858065,39.3835 26.5635484,38.3051968 27.6290323,37.4418165 C26.9322581,38.3607234 26.2844516,40.6456622 26.2639355,40.7371064 C26.1708387,41.1516144 26.6719355,41.4447793 26.7919355,41.7228005 C26.7919355,41.7228005 26.6719355,41.4447793 26.7919355,41.7228005 L26.7919355,41.7228005 L26.7919355,41.7228005 Z M30.1610323,30.3247048 C29.4137419,31.0690718 28.4098065,31.4696011 27.8388387,32.3657926 C27.534,32.5168404 23.4613548,36.870242 21.4724516,38.3261649 C23.1739355,33.9053936 27.2369032,31.1047952 30.1610323,30.3247048 C30.1610323,30.3247048 27.2369032,31.1047952 30.1610323,30.3247048 L30.1610323,30.3247048 L30.1610323,30.3247048 Z M20.355871,38.314516 C19.9126452,37.7404176 19.4312903,37.2727128 19.6976129,36.5275691 C22.7980645,31.9435186 28.6637419,28.4420426 33.3394839,27.0639734 C34.2745161,27.0014574 35.1735484,26.7807101 36.0954194,26.6861596 C34.1229677,27.7679574 32.228129,29.0701144 30.1449677,29.8434096 C29.6607097,30.0231915 27.2763871,30.7720239 26.5906452,31.0535399 C24.8562581,32.2446436 23.2997419,33.8611277 22.2803226,35.6738963 C22.0484516,36.0860745 20.8637419,38.3791676 20.355871,38.314516 C20.355871,38.314516 20.8637419,38.3791676 20.355871,38.314516 L20.355871,38.314516 L20.355871,38.314516 Z M24.0783871,36.9265452 C26.5542581,33.7283298 29.5654839,31.3593245 32.8052903,29.0522527 C34.7607097,28.3410851 36.5465806,26.9028298 38.6239355,26.4644415 C35.2138065,28.2933245 24.1103226,36.9131489 22.8178065,40.049625 C21.8713548,38.8662872 23.5629677,37.9198112 24.0783871,36.9265452 C24.0783871,36.9265452 23.5629677,37.9198112 24.0783871,36.9265452 L24.0783871,36.9265452 L24.0783871,36.9265452 Z M38.0951613,27.6590399 C36.2616774,29.1097207 31.7614839,33.1235559 31.2950323,33.3728431 C32.3932258,30.5970957 35.4696774,28.8862553 38.0951613,27.6590399 C38.0951613,27.6590399 35.4696774,28.8862553 38.0951613,27.6590399 L38.0951613,27.6590399 L38.0951613,27.6590399 Z M31.1369032,32.4750984 C30.9220645,33.145883 30.4929677,33.7712367 30.2821935,34.3798936 C30.2821935,34.3798936 24.9309677,38.3527633 24.2878065,40.582758 L24.1780645,41.3071277 C23.8124516,41.2050053 23.5198065,40.9366915 23.226,40.6837154 C23.9893548,37.8079814 30.5512258,33.1212261 31.1369032,32.4750984 C31.1369032,32.4750984 30.5512258,33.1212261 31.1369032,32.4750984 L31.1369032,32.4750984 L31.1369032,32.4750984 Z M30.5752258,35.1153298 C29.9643871,36.6159069 29.3854839,38.1028936 28.2143226,39.3951489 L27.2535484,39.611625 C27.6311613,37.6443138 29.3802581,36.5304814 30.5752258,35.1153298 C30.5752258,35.1153298 29.3802581,36.5304814 30.5752258,35.1153298 L30.5752258,35.1153298 L30.5752258,35.1153298 Z M30.2268387,39.4660133 C29.8819355,39.5209574 29.5242581,39.2951622 29.1174194,39.3460293 C30.3708387,37.7477952 30.6706452,36.0243351 31.7849032,34.4171702 C32.4452903,33.1066649 33.753871,32.3215266 34.8439355,31.3197181 C34.1196774,32.657016 31.4610968,38.3960585 30.2268387,39.4660133 C30.2268387,39.4660133 31.4610968,38.3960585 30.2268387,39.4660133 L30.2268387,39.4660133 L30.2268387,39.4660133 Z M34.7955484,32.763992 C35.0502581,31.7225771 35.8314194,30.93375 36.326129,30.0169787 C36.8789032,29.3997793 37.5296129,28.9446941 38.2132258,28.4606809 C36.2562581,31.5532793 32.4187742,39.6423005 32.0216129,40.254258 L31.05,39.6918085 C31.9902581,38.1353165 34.4550968,33.457492 34.7955484,32.763992 C34.7955484,32.763992 34.4550968,33.457492 34.7955484,32.763992 L34.7955484,32.763992 L34.7955484,32.763992 Z M41.3129032,24.7435053 C40.7723226,24.9411489 40.2203226,25.0758883 39.7085806,25.3065372 C37.8178065,25.508258 35.8033548,25.9351915 33.9001935,26.0893457 C30.9704516,26.9028298 27.9493548,28.3418617 25.3409032,30.1548245 C24.4029677,30.8067766 20.6094194,33.7549282 19.7210323,34.521234 C19.4893548,34.5058963 19.3192258,34.2610745 19.2377419,34.0845931 C19.034129,33.3821622 19.5210968,32.8765984 19.9645161,32.4141356 C20.072129,32.3017234 24.9617419,28.6886117 27.5411613,27.6918511 C32.6593548,24.7139947 34.5394839,24.4687846 39.7242581,24.1245585 C41.2769032,24.5854681 42.4792258,23.7622766 43.8570968,23.3398085 C43.3014194,24.2367766 42.1757419,24.3647207 41.3129032,24.7435053 C41.3129032,24.7435053 42.1757419,24.3647207 41.3129032,24.7435053 L41.3129032,24.7435053 L41.3129032,24.7435053 Z M14.9969032,27.3128723 C14.9250968,27.6972872 14.5885161,28.0952926 14.4065806,28.5033936 C13.8472258,28.2795399 14.2196129,27.5728378 13.9999355,27.1379441 C13.7680645,27.1226064 13.6983871,27.799992 13.6964516,27.9430798 C13.6904516,28.3717606 13.8269032,28.789375 13.8865161,29.1838856 C13.9410968,29.5446144 13.5903871,31.0020904 13.5545806,31.3111755 C13.3136129,31.4352367 13.0786452,31.2329335 12.8324516,31.2010931 C12.4002581,30.2229707 13.1568387,29.4069628 13.2189677,28.4616516 L12.9263226,28.1251915 L12.2343871,30.1497766 C11.7520645,29.6974096 12.1366452,28.5711516 12.3348387,27.9149282 C13.9981935,24.5130505 16.3256129,24.2631809 19.6416774,23.6978191 C18.4412903,24.2563856 14.955871,26.0493511 14.4958065,26.4392021 C14.5989677,26.7572181 14.9206452,27.0587314 14.9969032,27.3128723 C14.9969032,27.3128723 14.9206452,27.0587314 14.9969032,27.3128723 L14.9969032,27.3128723 L14.9969032,27.3128723 Z M11.1036774,26.8624468 C11.0010968,27.0055346 9.72270968,27.5241064 9.72270968,27.5241064 C9.52548387,26.7482872 9.76393548,25.9546064 10.0002581,25.1919894 C10.6829032,23.3069973 12.6100645,21.8469973 14.5480645,21.3992899 C15.5595484,21.3573537 16.2065806,21.6648856 17.2066452,21.7932181 C16.3571613,21.9704761 15.6238065,22.0310505 14.8246452,22.1490931 C10.3184516,23.5292979 12.3483871,25.1257846 11.1036774,26.8624468 C11.1036774,26.8624468 12.3483871,25.1257846 11.1036774,26.8624468 L11.1036774,26.8624468 L11.1036774,26.8624468 Z M11.8153548,27.3200559 C11.5728387,27.9423032 11.6750323,28.5094122 11.3583871,29.080016 C10.9759355,28.7588936 10.3445806,28.6858936 10.1268387,28.2201303 C10.3993548,27.6155505 11.252129,27.3916968 11.8153548,27.3200559 C11.8153548,27.3200559 11.252129,27.3916968 11.8153548,27.3200559 L11.8153548,27.3200559 L11.8153548,27.3200559 Z M11.9719355,25.6494043 C12.0284516,24.0810691 13.5286452,23.215359 14.787871,22.7070771 C16.7274194,22.8354096 19.9227097,22.1834574 22.2584516,23.077125 C19.5867097,22.8847234 16.9811613,23.3349548 14.5848387,24.1412553 C13.5296129,24.6161436 12.776129,25.453508 12.2597419,26.4623059 C11.9878065,26.3508644 11.9030323,25.9874176 11.9719355,25.6494043 C11.9719355,25.6494043 11.9030323,25.9874176 11.9719355,25.6494043 L11.9719355,25.6494043 L11.9719355,25.6494043 Z M17.2784516,29.1916516 C18.6414194,27.8188245 20.4363871,27.6574867 22.0087742,26.8742899 C23.0127097,26.7071277 24.1672258,26.612383 25.224,26.3555239 C23.7,27.1107633 18.6172258,30.3076197 17.6041935,30.8475479 C17.505871,30.2185053 17.0523871,29.7993378 17.2784516,29.1916516 C17.2784516,29.1916516 17.0523871,29.7993378 17.2784516,29.1916516 L17.2784516,29.1916516 L17.2784516,29.1916516 Z M17.1667742,28.2970133 C17.0634194,27.7454362 16.6910323,27.0358218 16.1430968,26.8750665 C17.5755484,26.5652048 19.134,26.6993617 20.6676774,26.7387739 C19.5133548,27.300641 18.2425161,27.5122633 17.1667742,28.2970133 C17.1667742,28.2970133 18.2425161,27.5122633 17.1667742,28.2970133 L17.1667742,28.2970133 L17.1667742,28.2970133 Z M21.6543871,26.1644814 C21.4159355,26.162734 17.5885161,26.1303112 15.8936129,26.4226995 C16.8487742,25.5831995 17.9823871,25.0978271 19.1090323,24.9545452 C20.0854839,24.9724069 26.1284516,25.1079229 27.9185806,25.2576117 C25.9037419,25.5717447 23.7692903,26.1798191 21.6543871,26.1644814 C21.6543871,26.1644814 23.7692903,26.1798191 21.6543871,26.1644814 L21.6543871,26.1644814 L21.6543871,26.1644814 Z M16.4086452,31.3288431 C16.7893548,32.1479574 17.9891613,32.3052181 18.129871,33.2328617 C17.2647097,33.1755878 16.5280645,32.5820745 15.8508387,32.023508 C16.0639355,31.8509096 16.0976129,31.3393271 16.4086452,31.3288431 C16.4086452,31.3288431 16.0976129,31.3393271 16.4086452,31.3288431 L16.4086452,31.3288431 L16.4086452,31.3288431 Z M18.1165161,31.5507553 C19.0312258,30.1482234 25.5452903,26.4234761 27.272129,25.8841303 C28.0362581,25.8256915 28.5996774,25.7540505 29.3990323,25.6358138 C27.2419355,26.8160452 20.1911613,30.6765027 19.0952903,32.0048697 C18.6903871,32.0246729 18.4122581,31.7726676 18.1165161,31.5507553 C18.1165161,31.5507553 18.4122581,31.7726676 18.1165161,31.5507553 L18.1165161,31.5507553 L18.1165161,31.5507553 Z M19.6865806,24.5464441 L19.593871,24.426266 C23.9189032,23.3116569 28.5985161,23.8861436 33.3127742,23.933516 C29.2412903,25.6719255 23.9566452,24.268617 19.6865806,24.5464441 C19.6865806,24.5464441 23.9566452,24.268617 19.6865806,24.5464441 L19.6865806,24.5464441 L19.6865806,24.5464441 Z M14.6312903,20.8444122 C13.0850323,20.9989548 10.4684516,22.2568457 9.474,24.8137872 C9.20245161,25.5113644 9.26458065,27.8828936 9.24619355,28.1618856 C8.58580645,27.8223191 8.42206452,24.4060745 8.51090323,24.1371782 C9.01277419,22.6183511 10.8596129,21.8768963 12.0089032,20.8420824 C13.4988387,20.1266436 15.8330323,20.3202101 17.7948387,20.6923936 C19.7566452,21.0647713 25.7074839,22.5428271 27.12,23.0099495 C25.2764516,23.1992447 16.9683871,21.1703883 14.6312903,20.8444122 C14.6312903,20.8444122 16.9683871,21.1703883 14.6312903,20.8444122 L14.6312903,20.8444122 L14.6312903,20.8444122 Z M8.31503226,23.446008 C6.79587097,23.4232926 5.50896774,24.1164043 4.21045161,24.7464176 C4.29,23.3040851 5.79387097,22.1428803 7.0923871,21.746234 C8.12941935,21.5503378 9.00174194,21.2655213 9.98729032,21.1441782 C9.34916129,21.8800027 8.66980645,22.5356436 8.31503226,23.446008 C8.31503226,23.446008 8.66980645,22.5356436 8.31503226,23.446008 L8.31503226,23.446008 L8.31503226,23.446008 Z M4.65387097,25.2248005 C5.71122581,24.5804202 6.82025806,24.0804867 8.06206452,23.989625 C7.46032258,25.117242 6.41535484,25.9041277 5.27051613,26.5599628 C5.04367742,26.2335984 4.56929032,25.27625 4.65387097,25.2248005 C4.65387097,25.2248005 4.56929032,25.27625 4.65387097,25.2248005 L4.65387097,25.2248005 L4.65387097,25.2248005 Z M15.3197419,32.5486809 C16.2797419,32.8146649 17.0537419,33.5508777 17.912129,33.9500479 C18.2698065,34.4094043 18.1321935,35.2131809 17.9059355,35.1295027 C16.7194839,34.6913085 14.8469032,33.4437074 14.8968387,33.0810372 C15.0212903,32.8402926 15.0778065,32.6882739 15.3197419,32.5486809 C15.3197419,32.5486809 15.0778065,32.6882739 15.3197419,32.5486809 L15.3197419,32.5486809 L15.3197419,32.5486809 Z M18.6036774,36.1749947 C18.3836129,36.9230505 18.5446452,37.5408324 18.6410323,38.2009388 C17.5163226,38.0797899 16.3602581,37.4895771 15.4347097,36.6966729 L15.3468387,34.72975 C16.4883871,35.0698989 17.3941935,35.923766 18.6036774,36.1749947 C18.6036774,36.1749947 17.3941935,35.923766 18.6036774,36.1749947 L18.6036774,36.1749947 L18.6036774,36.1749947 Z M20.9626452,39.9135266 C21.3958065,40.1810638 21.7592903,40.5398511 21.9603871,41.0512394 C21.4134194,41.3535293 20.8602581,41.2026755 20.2883226,41.0176516 C20.0185161,40.9304787 16.9654839,40.0824362 15.933871,39.2514787 C15.812129,38.7453324 15.6727742,38.2690851 15.5353548,37.7619681 C16.8768387,38.5977793 20.6512258,39.7213191 20.9626452,39.9135266 C20.9626452,39.9135266 20.6512258,39.7213191 20.9626452,39.9135266 L20.9626452,39.9135266 L20.9626452,39.9135266 Z M20.8660645,41.6482473 C20.628,41.7259069 19.5284516,42.4001862 19.5284516,42.4001862 C18.4099355,42.4196011 17.2666452,42.343883 16.2994839,42.1864282 C16.3916129,41.4919574 16.1183226,40.9291197 16.0993548,40.2742553 C17.4863226,41.1287048 19.4309032,41.2884894 20.8660645,41.6482473 C20.8660645,41.6482473 19.4309032,41.2884894 20.8660645,41.6482473 L20.8660645,41.6482473 L20.8660645,41.6482473 Z M16.3174839,42.8570186 L18.5492903,42.8956543 C17.802,43.4066543 16.9896774,43.9597846 16.1556774,44.3715745 L16.3174839,42.8570186 L16.3174839,42.8570186 L16.3174839,42.8570186 L16.3174839,42.8570186 Z M22.2594194,41.6936782 C22.6250323,41.5622394 24.4078065,43.0034069 24.4078065,43.0034069 C21.8243226,44.0621011 19.3453548,44.2403298 16.8123871,45.4735638 C16.5292258,45.5325851 16.5979355,45.194766 16.3323871,45.2238883 C18.1110968,43.6606011 20.1590323,42.7220851 22.2594194,41.6936782 C22.2594194,41.6936782 20.1590323,42.7220851 22.2594194,41.6936782 L22.2594194,41.6936782 L22.2594194,41.6936782 Z M21.8732903,44.4989362 C22.5164516,44.3368218 29.2250323,43.1356223 30.909871,42.7646037 C30.9462581,43.1562021 30.9462581,43.3895691 30.998129,43.7821383 C30.998129,43.7821383 25.0554194,45.0079947 24.5390323,45.0949734 C22.8683226,45.3762952 21.1453548,45.8550665 19.563871,46.1070718 C18.812129,46.2130771 18.0673548,47.6268697 17.4907742,46.2499654 C18.7914194,45.2819388 20.3324516,44.8876223 21.8732903,44.4989362 C21.8732903,44.4989362 20.3324516,44.8876223 21.8732903,44.4989362 L21.8732903,44.4989362 L21.8732903,44.4989362 Z M17.9152258,48.2861995 C18.2388387,48.5566489 18.6429677,49.0191117 18.6793548,49.4107101 C18.1087742,49.5908803 17.5372258,49.7865824 16.9668387,49.9667527 C17.2105161,49.3291676 17.5242581,48.8049654 17.9152258,48.2861995 C17.9152258,48.2861995 17.5242581,48.8049654 17.9152258,48.2861995 L17.9152258,48.2861995 L17.9152258,48.2861995 Z M19.6784516,51.2046463 C18.9222581,50.9054628 17.9891613,50.937109 17.2699355,50.547258 C18.0497419,50.7233511 19.6312258,49.8005612 19.6784516,51.2046463 C19.6784516,51.2046463 19.6312258,49.8005612 19.6784516,51.2046463 L19.6784516,51.2046463 L19.6784516,51.2046463 Z M19.6120645,48.9121356 L18.7387742,47.5624122 C19.0362581,47.0527713 22.8733548,46.2794761 24.0572903,45.7352766 C24.8359355,45.6933404 28.5849677,45.3190213 29.7545806,44.9916862 C27.5490968,45.966508 25.9794194,47.6524973 23.3839355,47.4808697 C22.137871,47.7874309 20.7406452,48.2708617 19.6120645,48.9121356 C19.6120645,48.9121356 20.7406452,48.2708617 19.6120645,48.9121356 L19.6120645,48.9121356 L19.6120645,48.9121356 Z M25.7057419,47.8056809 C27.110129,47.2139149 28.6649032,46.460617 30.0969677,45.6838271 C30.626129,45.1895239 31.3469032,44.8482101 31.6987742,44.2178085 C32.094,43.8702819 32.3682581,44.1842207 32.8182581,44.1828617 C30.7323871,46.8776489 26.960129,47.6086197 24.3567097,49.6776649 C23.604,50.0325691 22.9172903,50.562984 22.1130968,50.7586862 C22.9269677,49.4740027 24.4095484,48.6383856 25.7057419,47.8056809 C25.7057419,47.8056809 24.4095484,48.6383856 25.7057419,47.8056809 L25.7057419,47.8056809 L25.7057419,47.8056809 Z M35.9154194,39.5625053 C35.3938065,37.3488191 37.7525806,35.932891 38.9442581,34.3307739 C38.5004516,36.3559415 38.4270968,39.1217872 35.9154194,39.5625053 C35.9154194,39.5625053 38.4270968,39.1217872 35.9154194,39.5625053 L35.9154194,39.5625053 L35.9154194,39.5625053 Z M44.9045806,23.4559096 C45.558,22.4873005 46.8052258,22.3985745 47.7565161,21.8545691 C47.6036129,22.5294309 47.2815484,23.1773059 46.8009677,23.6436516 L46.902,23.7591702 C48.8725161,22.5822394 50.7112258,21.2874601 52.5342581,19.7583431 C52.3966452,20.4339814 49.3981935,23.0839202 48.1914194,23.7356782 C46.9927742,24.030008 47.6583871,26.1753537 46.0585161,25.4935027 C45.6267097,25.2158697 45.3503226,24.4658723 44.8383871,24.4631543 C46.0507742,26.317859 43.5023226,27.3165612 43.2048387,29.0091516 C42.9019355,29.5042314 42.6723871,30.1563777 42.4784516,30.8015346 C42.3383226,31.267492 42.5543226,31.3474814 42.8599355,30.9475346 C43.5406452,29.3271676 44.4812903,28.0040426 45.5988387,26.5836489 C46.1909032,26.3116463 46.6527097,26.8403138 47.22,26.4731782 C48.2299355,25.9796516 47.708129,24.9489149 48.5369032,24.3812234 C48.9414194,24.1276649 51.06,22.5868989 51.06,22.5868989 C51.0389032,23.1458537 50.5180645,23.7496569 50.4876774,24.4480106 C49.0712903,25.6928936 48.915871,27.5815745 47.0955484,28.3639947 C43.7996129,30.3546037 42.1724516,33.3769202 41.766,33.8949096 C41.766,33.8949096 40.5809032,30.6425266 44.9045806,23.4559096 C44.9045806,23.4559096 40.5809032,30.6425266 44.9045806,23.4559096 L44.9045806,23.4559096 L44.9045806,23.4559096 Z M58.2150968,9.82995479 C56.1046452,9.59678191 54.5750323,9.49543617 52.4688387,9.66725798 C53.6864516,8.37830319 55.4036129,7.27767287 55.6517419,5.39520479 C59.1634839,3.54768351 61.9383871,3.95267819 64.8069677,5.39423404 C63.8897419,5.8939734 62.7723871,6.1312234 61.8694839,6.88083245 L58.8834194,9.81189894 C58.6395484,9.98255585 58.4581935,9.90819681 58.2150968,9.82995479 C58.2150968,9.82995479 58.4581935,9.90819681 58.2150968,9.82995479 L58.2150968,9.82995479 L58.2150968,9.82995479 Z M46.0407097,8.07446011 C46.6316129,7.58442819 48.1393548,7.48152926 48.2510323,7.48036436 C49.9329677,7.46289096 51.3301935,6.18519681 52.7512258,5.37443085 L53.2488387,5.36064628 C52.2466452,6.53932447 51.0294194,8.00417819 49.4622581,8.46916489 C48.1008387,8.87299468 45.6677419,8.09057447 43.8843871,8.53867021 L46.4148387,6.63601064 C46.3627742,6.90704255 46.1816129,7.22835904 45.9630968,7.51958245 C45.884129,7.62481117 45.8287742,8.2315266 46.0407097,8.07446011 C46.0407097,8.07446011 45.8287742,8.2315266 46.0407097,8.07446011 L46.0407097,8.07446011 L46.0407097,8.07446011 Z M42.6526452,8.62836702 C42.5779355,7.87623404 42.6783871,7.29145745 42.9387097,6.63931117 C43.4758065,5.78757979 44.0634194,5.11058245 44.9210323,4.57589628 C45.8560645,4.51318617 47.3581935,5.03292287 48.4393548,4.63763564 C48.0092903,5.38219681 46.4984516,5.3651117 45.6203226,5.97629255 C44.5445806,6.7612367 43.5932903,7.77236436 42.6526452,8.62836702 C42.6526452,8.62836702 43.5932903,7.77236436 42.6526452,8.62836702 L42.6526452,8.62836702 L42.6526452,8.62836702 Z M43.0805806,9.66842287 C44.7332903,8.84387234 46.6389677,9.35914362 48.4014194,9.46029521 C48.0903871,9.70434043 47.6353548,9.78316489 47.2523226,9.94469681 C47.5788387,10.1685505 48.0085161,10.4772473 48.3857419,10.6422739 C46.5534194,10.8946676 44.9531613,9.74569415 43.0805806,9.66842287 C43.0805806,9.66842287 44.9531613,9.74569415 43.0805806,9.66842287 L43.0805806,9.66842287 L43.0805806,9.66842287 Z M46.9283226,12.2735133 C48.7724516,11.368391 50.898,10.9020452 53.012129,10.6061622 C54.5376774,10.7694415 56.5747742,10.4685106 58.08,10.9416516 C57.7372258,11.4326543 57.2512258,11.7429043 56.8211613,12.1502287 C54.3330968,12.9349787 51.0013548,11.6871835 48.528,12.7219973 C47.768129,12.9518697 47.1207097,13.074766 46.4125161,13.4636463 C46.3908387,13.5556729 46.3391613,13.915625 46.257871,13.9725106 C50.9125161,12.6385133 53.3796774,13.2766809 55.9935484,12.9359495 L54.1136129,14.3837181 C53.7327097,14.5141862 52.3321935,14.8104574 52.0798065,14.6380532 C51.0400645,14.1647181 49.8799355,13.4028777 48.5740645,13.674492 C46.8216774,14.249367 45.525871,15.4288218 43.9236774,16.1912447 C43.7570323,16.2708457 43.9412903,16.6364282 44.2863871,16.8150452 L42.7004516,17.0992793 C42.1188387,17.6832793 40.7237419,18.3692074 40.7237419,18.3692074 C42.2372903,16.1190213 44.343871,13.5813005 46.9283226,12.2735133 C46.9283226,12.2735133 44.343871,13.5813005 46.9283226,12.2735133 L46.9283226,12.2735133 L46.9283226,12.2735133 Z M51.1623871,15.1377926 C49.3660645,14.7256144 46.5383226,17.0946197 45.0532258,16.2432766 C45.9150968,15.6464628 46.9292903,15.3245638 47.7168387,14.6763005 C48.3274839,14.5920399 48.795871,14.311883 49.5344516,14.4074043 L51.1623871,15.1377926 L51.1623871,15.1377926 L51.1623871,15.1377926 L51.1623871,15.1377926 Z M40.9467097,19.2246277 C41.6912903,18.9935904 42.5682581,18.3979415 43.1117419,17.6867739 C43.7202581,17.4002101 44.5639355,17.5495106 45.2032258,17.2648883 C45.6576774,16.9041596 46.1928387,17.0653032 46.7051613,17.0812234 C46.968,17.0893777 49.5232258,15.9943777 50.5621935,15.7674176 C51.0421935,15.7835319 51.5963226,15.6179229 52.0031613,15.8004229 C50.4580645,17.114617 48.9305806,18.3989122 48.3570968,20.2755559 C48.0772258,20.9886649 47.0796774,21.5295638 46.2971613,21.8668005 C45.8471613,22.1017207 41.2434194,23.9139069 39.3160645,23.4904681 C38.1408387,23.4283404 36.5556774,23.2299202 35.4042581,23.5118245 C36.9365806,21.6831356 38.2649032,19.4205239 40.9467097,19.2246277 C40.9467097,19.2246277 38.2649032,19.4205239 40.9467097,19.2246277 L40.9467097,19.2246277 L40.9467097,19.2246277 Z M34.8282581,23.0687766 C33.3936774,23.4097021 32.1390968,23.1398351 30.6270968,23.2421516 C27.8591613,22.6230106 25.2799355,22.2032606 22.5387097,21.4146277 C26.8327742,21.7145878 31.1293548,22.4504122 35.4354194,22.3308165 L34.8282581,23.0687766 L34.8282581,23.0687766 L34.8282581,23.0687766 L34.8282581,23.0687766 Z M18.7896774,13.7729255 C20.9384516,15.9866117 21.6516774,18.3892048 26.0415484,19.7249495 L26.2308387,19.5422553 C24.0979355,18.2336915 21.6427742,17.1058803 20.3485161,14.6075718 C21.2574194,14.528359 21.7002581,15.4855133 22.2133548,16.1993989 C22.3873548,16.4416968 26.4447097,19.3603378 28.4125161,20.1132473 L28.5073548,19.8486223 C26.8153548,18.9116596 25.0639355,17.9395559 23.4491613,16.7740798 C24.512129,16.8913457 30.0576774,20.453008 34.7136774,21.2711516 C30.3344516,21.5573271 26.3152258,21.0888457 22.7038065,18.9040878 C20.1164516,17.1596596 17.7700645,13.9387287 17.7700645,13.9387287 C18.0892258,13.8043777 18.4465161,13.5632447 18.7896774,13.7729255 C18.7896774,13.7729255 18.4465161,13.5632447 18.7896774,13.7729255 L18.7896774,13.7729255 L18.7896774,13.7729255 Z M6.87832258,15.5682207 C8.82251613,15.260883 10.4765806,16.5379947 12.3460645,16.6616676 C12.2026452,16.2473537 9.35109677,15.4827952 8.43309677,15.048484 C8.98877419,14.9059787 9.50709677,14.7898777 10.0246452,14.8758856 C10.2716129,14.9168511 14.2141935,16.3339441 14.2141935,16.3339441 C14.2492258,16.2739521 14.3593548,16.250266 14.3336129,16.1706649 C13.296,15.6660718 12.204,15.2824335 11.2507742,14.6745532 C11.9150323,14.2516968 12.7250323,14.9123856 13.3914194,15.1587606 C15.5200645,16.295891 17.3967097,17.7277394 19.6548387,18.5464654 L19.8499355,18.2585426 C18.6340645,17.3998218 13.3585161,14.9541277 12.8158065,13.7665186 C13.7868387,13.3949176 15.9174194,14.267617 16.0687742,14.3243085 C18.2392258,16.2425 20.3707742,18.5161782 22.9650968,19.8862872 C20.8532903,19.4352793 9.97529032,17.080641 6.43703226,16.379375 C6.33367742,16.061359 6.66522581,15.7408191 6.87832258,15.5682207 C6.87832258,15.5682207 6.66522581,15.7408191 6.87832258,15.5682207 L6.87832258,15.5682207 L6.87832258,15.5682207 Z M3.80709677,17.4349628 C4.25690323,16.9666755 5.09825806,16.9134787 5.84090323,16.9470665 C7.09858065,16.9369707 12.3983226,17.7547261 13.2512903,18.2315559 C11.3047742,18.102641 4.87587097,18.6421809 4.00470968,18.6777101 C3.85606452,18.3410559 3.56012903,17.8855824 3.80709677,17.4349628 C3.80709677,17.4349628 3.56012903,17.8855824 3.80709677,17.4349628 L3.80709677,17.4349628 L3.80709677,17.4349628 Z M1.74890323,23.2448697 C3.36580645,21.5462606 5.57458065,20.7585984 7.65774194,19.9936516 L7.27974194,19.8441569 C6.16258065,20.3149681 2.58832258,21.5726649 1.95290323,21.7951596 C1.8063871,21.4274415 1.66509677,20.982258 2.02625806,20.6793856 C3.52954839,18.7118803 13.7090323,18.8221569 13.7090323,18.8221569 C12.2024516,19.3139362 8.05683871,20.9044043 7.65445161,21.0356489 C6.02012903,21.5683936 4.35329032,22.3597447 3.80322581,24.0967952 C3.64412903,24.8646543 3.80225806,25.7622048 4.16632258,26.3623191 C4.27354839,26.6184016 4.56909677,26.6069468 4.63103226,26.8445851 C2.50432258,27.0956197 0.423290323,25.1622846 1.74890323,23.2448697 C1.74890323,23.2448697 0.423290323,25.1622846 1.74890323,23.2448697 L1.74890323,23.2448697 L1.74890323,23.2448697 Z M1.13032258,28.4026303 L1.45664516,26.7432394 C2.19232258,27.1189176 2.7363871,27.5751676 3.63348387,27.6190452 C3.29593548,27.7990213 1.54858065,28.6484229 1.13032258,28.4026303 C1.13032258,28.4026303 1.54858065,28.6484229 1.13032258,28.4026303 L1.13032258,28.4026303 L1.13032258,28.4026303 Z M2.03903226,28.9765346 C2.5016129,29.022742 4.37458065,27.811641 4.98580645,27.6134149 C5.31716129,27.5058564 5.66767742,27.457125 6.04664516,27.4984787 C6.3,27.421984 5.74354839,26.9181676 5.74354839,26.9181676 L7.57277419,25.5294202 C6.72522581,27.092125 5.7663871,28.6940479 4.53329032,29.9822261 C4.11290323,29.7676915 2.26374194,29.3339628 2.03903226,28.9765346 C2.03903226,28.9765346 2.26374194,29.3339628 2.03903226,28.9765346 L2.03903226,28.9765346 L2.03903226,28.9765346 Z M4.92425806,40.3125027 C5.39380645,40.0168138 5.988,39.9471144 6.37296774,39.5211516 C5.84458065,39.5329947 5.24225806,39.7265612 4.62406452,39.6855957 C4.11793548,39.2435186 4.49864516,38.8513378 4.71696774,38.439742 C4.78974194,38.3024787 5.83296774,37.5864574 6.18387097,37.2049548 C5.57941935,37.1960239 4.17967742,37.1090452 4.07748387,36.9051888 C3.9296129,36.6106649 3.81154839,36.3206064 4.19845161,36.015016 C4.79341935,35.4630505 5.50490323,35.2611356 6.21541935,35.0745585 C6.81464516,36.3439043 7.40883871,37.6907154 7.63025806,39.0441277 C7.91574194,39.4209707 9.87290323,39.861883 9.87290323,39.861883 C8.43329032,40.2802739 7.10283871,40.4567553 5.62490323,40.7481729 L4.92425806,40.3125027 L4.92425806,40.3125027 L4.92425806,40.3125027 L4.92425806,40.3125027 Z M7.63916129,44.8039441 C6.68612903,44.1960638 6.36174194,42.9915638 5.97290323,42.0631436 C5.94174194,41.5940798 9.40993548,40.5316968 10.7322581,40.2457154 C11.4317419,40.6967234 11.9328387,41.3370266 12.5872258,41.7693963 C13.1578065,41.5853431 13.6138065,41.2886835 14.1617419,41.2213138 C14.3442581,41.1989867 14.9262581,41.8307473 14.8976129,42.2648644 L13.9296774,42.5898697 C11.9609032,43.5462473 10.467871,45.3724122 8.83741935,46.9758883 C8.62277419,47.1869282 8.62470968,46.3324787 8.76135484,45.6721782 C9.22006452,44.5973697 10.1763871,43.9757048 10.9997419,43.0185505 C10.2675484,43.0633989 8.13774194,45.0081888 7.63916129,44.8039441 C7.63916129,44.8039441 8.13774194,45.0081888 7.63916129,44.8039441 L7.63916129,44.8039441 L7.63916129,44.8039441 Z M13.6703226,49.1256995 C12.9487742,49.8223059 13.1705806,50.7969335 12.8252903,51.5135372 C12.7662581,51.6362394 12.5036129,51.0565106 12.2345806,50.6651064 C12.3752903,49.9428723 13.0410968,49.3652793 13.364129,48.7016782 L13.0498065,48.4155027 C12.4486452,48.8270984 12.2959355,49.9686941 11.6461935,50.1748803 L11.4874839,49.9929628 C11.8465161,49.4875931 12.4695484,48.5667447 12.7350968,48.0706941 C12.7081935,48.0068191 12.2185161,48.3137686 12.1567742,48.3096915 C11.8552258,48.6477048 11.5600645,49.1262819 11.1379355,49.4095452 C10.938,49.3808112 10.9647097,49.2113191 10.8162581,49.1080319 C11.1023226,48.5354867 11.7663871,48.1124362 11.8225161,47.4936835 L10.5565161,48.8107899 C10.395871,48.8934973 10.2692903,48.6983777 10.2505161,48.5102473 C10.9416774,46.9683165 12.7803871,45.9070984 13.9052903,44.6117367 C13.0236774,44.5688298 10.2056129,47.5422207 9.43045161,48.2380505 C9.17322581,48.3766729 8.86412903,48.3560931 8.58193548,48.3997766 C10.2450968,46.4707128 12.1447742,44.2461543 14.414129,43.0111729 C14.5943226,42.8673085 14.826,42.8826463 15.0309677,42.834109 C15.4714839,43.9217314 14.397871,44.9089787 14.8360645,45.7941037 C15.0042581,46.0699894 15.3367742,45.9672846 15.5409677,46.1676463 C15.1467097,46.4994468 14.7714194,49.1363777 13.6703226,49.1256995 C13.6703226,49.1256995 14.7714194,49.1363777 13.6703226,49.1256995 L13.6703226,49.1256995 L13.6703226,49.1256995 Z M15.7550323,52.3458537 C15.4316129,52.3087713 14.9287742,50.2832154 14.9287742,50.2832154 C15.5430968,49.4365319 16.4862581,49.0165878 17.2819355,48.4776303 C16.6252258,49.0257128 16.8909677,50.4131011 15.7600645,50.3849495 C15.615871,50.4530957 15.6375484,50.5948245 15.6294194,50.7186915 C16.0515484,50.7291755 16.1827742,50.854984 16.185871,51.0303005 C16.1909032,51.3252128 15.7550323,52.3458537 15.7550323,52.3458537 L15.7550323,52.3458537 L15.7550323,52.3458537 L15.7550323,52.3458537 Z M16.5493548,51.1219388 C16.8389032,51.2034814 17.2726452,51.4500505 17.6332258,51.6296383 C17.3432903,52.264117 17.1892258,52.9543165 16.6736129,53.4806543 C16.1543226,53.3529043 16.3745806,51.4217048 16.5493548,51.1219388 C16.5493548,51.1219388 16.3745806,51.4217048 16.5493548,51.1219388 L16.5493548,51.1219388 L16.5493548,51.1219388 Z M18.1974194,54.1419255 L17.2732258,53.8006117 C17.5107097,53.2558298 17.7729677,52.5728138 18.1207742,52.0043457 C18.4492258,51.9637686 18.9305806,52.8320027 18.8885806,52.9754787 C18.7529032,53.4396888 18.6377419,53.9332154 18.1974194,54.1419255 C18.1974194,54.1419255 18.6377419,53.9332154 18.1974194,54.1419255 L18.1974194,54.1419255 L18.1974194,54.1419255 Z M19.6409032,55.0781117 C19.2805161,55.131891 19.2050323,54.6288511 18.8401935,54.511391 C18.8214194,54.0898936 19.2073548,53.6483989 19.272,53.1391463 C19.6757419,53.1346809 19.7090323,53.806242 20.0512258,54.0310665 L19.6409032,55.0781117 L19.6409032,55.0781117 L19.6409032,55.0781117 L19.6409032,55.0781117 Z M19.8431613,55.5427101 L20.4108387,54.4595532 L21.086129,55.2827447 L20.5110968,56.4742367 L19.8431613,55.5427101 L19.8431613,55.5427101 L19.8431613,55.5427101 L19.8431613,55.5427101 Z M20.7,58.5568723 C21.5970968,58.60075 21.7209677,57.4261489 22.3047097,57.0444521 L23.007871,58.3829149 C22.7312903,58.815867 22.5439355,59.3016277 22.251871,59.7338032 C21.7190323,59.3404574 21.2369032,58.8882846 20.7,58.5568723 C20.7,58.5568723 21.2369032,58.8882846 20.7,58.5568723 L20.7,58.5568723 L20.7,58.5568723 Z M23.4632903,61.6040399 C23.0986452,61.4863856 22.8594194,61.1126489 22.6769032,60.8204548 C22.490129,60.1230718 22.9912258,59.5802314 23.1876774,58.955266 L23.9276129,59.7357447 C23.8918065,60.2781968 23.6729032,61.0109149 23.4632903,61.6040399 C23.4632903,61.6040399 23.6729032,61.0109149 23.4632903,61.6040399 L23.4632903,61.6040399 L23.4632903,61.6040399 Z M23.103871,56.9260213 C23.4799355,57.1065798 23.8209677,57.3471303 24.2330323,57.4521649 C24.5736774,56.9922261 24.1621935,56.4047314 24.501871,55.9601303 C24.501871,55.9601303 27.9882581,54.0079628 30.2746452,52.1775266 C30.8583871,51.7104043 33.5194839,48.6187766 34.3395484,47.4744628 C34.1303226,48.7682713 33.8388387,50.1343032 32.9773548,51.1978511 C31.0109032,53.729359 27.8423226,54.9517207 25.4479355,56.9101011 C24.8949677,57.0601782 24.0884516,58.4700878 24.1596774,58.568133 C23.7245806,58.1035346 23.2649032,57.5438032 23.103871,56.9260213 C23.103871,56.9260213 23.2649032,57.5438032 23.103871,56.9260213 L23.103871,56.9260213 L23.103871,56.9260213 Z M24.2936129,61.7213059 C24.188129,61.2005984 24.162,60.6540691 24.2307097,60.0826888 C24.9510968,60.6907633 25.35,61.2308856 25.8932903,61.9360346 C25.7543226,62.1602766 24.6592258,61.823234 24.2936129,61.7213059 C24.2936129,61.7213059 24.6592258,61.823234 24.2936129,61.7213059 L24.2936129,61.7213059 L24.2936129,61.7213059 Z M25.1047742,59.5334415 C23.2287097,57.1673484 29.7077419,55.0241383 32.0539355,53.2069043 C31.8212903,53.4406596 31.7833548,53.7806144 31.5661935,54.0151463 C29.7309677,55.9640133 26.331871,60.8845239 25.1047742,59.5334415 C25.1047742,59.5334415 26.331871,60.8845239 25.1047742,59.5334415 L25.1047742,59.5334415 L25.1047742,59.5334415 Z M27.0832258,60.8319096 C27.3352258,59.120875 28.9606452,57.7653271 30.0640645,56.3284309 C32.1030968,54.3465585 33.9090968,52.1313191 34.4934194,49.3837234 C35.006129,47.7210319 35.2594839,45.9944654 35.7764516,44.2696463 C37.0738065,39.5766782 38.2275484,39.3266144 38.2275484,39.3266144 C37.7487097,40.9448457 37.1883871,42.6199628 36.9547742,44.2855665 C36.7534839,45.2215585 36.5430968,46.2973378 36.3046452,47.3243856 C35.8325806,48.3671596 34.7353548,51.296867 34.5973548,51.6102234 C33.8223871,53.368242 32.6256774,55.0249149 31.610129,56.6487766 C29.9976774,59.143008 28.317871,61.7811037 27.0832258,60.8319096 C27.0832258,60.8319096 28.317871,61.7811037 27.0832258,60.8319096 L27.0832258,60.8319096 L27.0832258,60.8319096 Z M29.5672258,62.2260931 C29.3986452,59.5998404 31.8634839,58.2219654 32.9291613,56.1756356 C33.7993548,54.2720053 36.0640645,49.5654468 36.3574839,49.1179335 C36.4765161,50.1376037 35.6187097,53.5053112 35.6187097,53.5053112 C34.4767742,55.530867 32.997871,57.2543271 32.1557419,59.4398617 C31.4508387,60.2494628 29.9761935,62.3777234 29.5672258,62.2260931 C29.5672258,62.2260931 29.9761935,62.3777234 29.5672258,62.2260931 L29.5672258,62.2260931 L29.5672258,62.2260931 Z M31.5462581,62.8085399 C31.8056129,62.4052926 33.2589677,58.0031596 34.2325161,56.6511064 C33.6025161,58.9131356 33.1283226,61.403484 33.8272258,63.7534628 C32.8858065,63.6754149 32.1193548,63.5313564 31.5462581,62.8085399 C31.5462581,62.8085399 32.1193548,63.5313564 31.5462581,62.8085399 L31.5462581,62.8085399 L31.5462581,62.8085399 Z M36.8878065,62.9908457 L36.7567742,64.2741702 C35.5885161,63.8699521 34.5644516,65.0474654 33.332129,64.4366729 C33.8233548,64.2823245 34.2313548,64.4492926 34.6863871,64.1371011 C34.605871,63.7115266 34.2675484,63.1910133 34.4930323,62.8322261 C36.4151613,60.266742 36.4027742,57.1527872 37.3081935,54.0062154 C38.6535484,51.2467766 38.2292903,48.2613484 38.9585806,45.1965133 C39.2669032,42.6329707 39.9305806,40.0929202 41.3856774,38.0256223 C41.316,38.8460957 41.3154194,39.562117 41.1627097,40.4703457 C39.3721935,44.5699947 38.7478065,48.8715585 38.0430968,53.2142819 C37.0687742,56.4653059 36.9472258,59.4924761 36.8878065,62.9908457 C36.8878065,62.9908457 36.9472258,59.4924761 36.8878065,62.9908457 L36.8878065,62.9908457 L36.8878065,62.9908457 Z M37.5040645,63.7631702 C37.4247097,63.555625 37.5040645,59.0469043 37.7998065,57.6187447 C38.0717419,59.1466968 37.8379355,60.5787394 38.6297419,61.9855426 C38.7919355,62.5877926 37.6544516,63.6020266 37.5040645,63.7631702 C37.5040645,63.7631702 37.6544516,63.6020266 37.5040645,63.7631702 L37.5040645,63.7631702 L37.5040645,63.7631702 Z M39.5789032,57.1923936 C39.5281935,58.0901383 38.5914194,59.9749362 38.5914194,59.9749362 C37.92,53.906617 39.2996129,48.8472899 40.7512258,42.4889122 C40.8491613,42.6512207 39.6392903,56.1253511 39.5789032,57.1923936 C39.5789032,57.1923936 39.6392903,56.1253511 39.5789032,57.1923936 L39.5789032,57.1923936 L39.5789032,57.1923936 Z M40.4744516,52.5815505 L40.6494194,50.8652739 C40.7514194,49.315383 40.862129,46.9257979 41.0965161,45.0111011 C41.5738065,45.6923697 41.3707742,48.3914282 41.748,50.2065266 C41.802,51.0349601 41.1361935,51.9560027 40.4744516,52.5815505 C40.4744516,52.5815505 41.1361935,51.9560027 40.4744516,52.5815505 L40.4744516,52.5815505 L40.4744516,52.5815505 Z M42.1387742,49.4540053 C41.3005161,44.9779016 41.6088387,40.7644814 42.1207742,36.0507394 C42.3884516,34.5742367 42.7354839,32.8383511 43.9596774,31.923133 C43.1471613,33.8929681 42.4107097,38.4826489 42.4107097,38.4826489 C42.3665806,39.3468059 41.9609032,44.3818644 42.8537419,47.1009202 C42.8312903,47.6350239 42.3971613,49.066484 42.1387742,49.4540053 C42.1387742,49.4540053 42.3971613,49.066484 42.1387742,49.4540053 L42.1387742,49.4540053 L42.1387742,49.4540053 Z M87.3646452,38.7195106 C87.2374839,39.4735851 87.9125806,40.2965824 87.0447097,40.9863936 C86.7687097,40.9368856 86.4390968,40.9929947 86.358,41.2832473 C86.1627097,41.8930691 86.3179355,42.8372154 85.5034839,43.1880426 C85.1812258,43.3689894 84.6526452,43.1472713 84.4271613,43.5058644 C84.5322581,44.7425931 83.720129,45.7628457 83.5385806,46.8714362 C83.4245806,47.4243723 83.0150323,47.9887633 82.5042581,48.2038803 C81.4176774,48.2098989 82.2406452,49.6184495 81.5314839,50.2564229 C80.6148387,50.5070691 80.5033548,51.4958697 80.4367742,52.2697473 C80.2861935,53.3804734 79.9674194,54.215508 78.8204516,54.9022128 C79.0716774,56.2730984 78.4114839,57.8171649 77.1152903,58.6496755 C77.1152903,58.6496755 77.0194839,62.2400718 74.3972903,63.4039947 C73.3470968,64.0349787 72.1132258,64.1555452 70.9712903,64.5314176 C70.0645161,68.1573431 65.9014839,71.0014309 63.9150968,70.8352394 C63.3408387,71.5442713 62.3442581,72.0700266 61.3933548,71.8980106 C59.5887097,71.7318191 57.3408387,70.9915293 55.461871,71.9566436 C54.1232903,70.8406755 53.5403226,69.3234016 52.5443226,67.949992 C50.8116774,67.3993856 51.1399355,65.4753697 50.889871,64.0891463 C50.8482581,62.1251356 50.8366452,59.9452314 49.4450323,58.2186649 C49.3738065,56.4705479 49.1792903,51.8814495 48.8113548,51.5768298 C47.9502581,51.6911835 47.2741935,52.5335957 46.3585161,52.3017819 C45.6514839,51.725742 44.5571613,49.4895346 44.3314839,49.1476383 C42.4076129,44.2298457 42.8206452,37.914375 44.0893548,33.4883617 C44.3938065,34.5202633 45.0824516,37.0251729 45.2514194,37.0519654 C45.6178065,36.6714335 46.3335484,31.9246862 46.9349032,30.0967739 C47.5265806,29.1240878 48.2345806,28.2680851 49.2702581,27.6207926 C49.4583871,26.8859388 49.7216129,26.187391 50.193871,25.6115452 C50.1983226,26.0165399 50.091871,27.1614362 50.091871,27.1614362 C50.7414194,26.488516 51.4215484,25.5837819 52.0689677,24.9419255 C53.7588387,24.4934415 55.6515484,23.7937287 57.3524516,22.9412207 C58.0916129,22.5542819 58.8845806,22.2954814 59.6506452,21.9726117 C58.8230323,22.7585266 56.6905161,26.6331569 56.1443226,27.6242872 C54.2053548,29.9709654 51.3402581,31.7736383 48.4846452,32.720891 C47.9173548,32.8544654 47.3210323,32.9552287 46.8917419,33.3470213 C47.9094194,33.4454548 48.9919355,33.2681968 49.929871,32.9255239 C48.3058065,34.7324681 46.9453548,36.5415479 46.1341935,38.7292181 C47.0945806,37.8122527 51.2295484,32.7469069 52.6047097,31.4214521 C53.3328387,31.2051702 55.1310968,29.5807261 55.473871,29.3232846 C54.3363871,31.7540293 54.2436774,34.8143989 52.2911613,36.8954814 C51.7970323,37.3295984 51.0528387,38.0275638 50.4001935,38.5135186 C49.449871,39.0421862 45.8701935,39.676859 45.3276774,40.1389335 C46.4105806,40.6621649 47.6212258,39.9484734 48.747871,39.8049973 C47.4541935,41.3071277 45.4633548,41.3776037 44.3560645,42.8764335 C45.014129,42.7799415 45.8036129,42.1006144 46.608,41.9049122 C45.8092258,42.7236383 44.3411613,46.6423404 44.4598065,47.1950824 C44.6278065,47.2372128 44.8960645,47.2189628 45.0092903,47.1484867 C46.0972258,43.1111596 49.662,40.5349973 52.6952903,37.5915053 C52.3730323,39.1889628 51.5543226,41.018234 51.1331613,42.7024761 C50.7437419,44.218391 49.0929677,47.9590585 48.3199355,49.5603989 C48.1407097,49.9314176 48.6313548,50.0541197 48.7407097,49.9269521 C50.7329032,47.609008 51.2210323,44.7983138 52.3976129,42.1169229 C54.09,36.2050878 55.7394194,30.4771117 58.6031613,25.1566543 C60.0489677,22.9951941 61.569871,20.8700399 63.3162581,18.8532207 C64.5102581,17.6871622 65.3365161,16.4498511 66.6181935,15.3672766 C66.044129,18.1933085 66.4393548,20.6788032 66.4976129,23.095375 C65.3469677,26.1945745 62.558129,28.0178271 60.2194839,30.3068431 C58.7202581,32.3399707 57.5754194,34.6458777 56.4418065,36.7811277 C56.2350968,37.3276569 56.0283871,37.8743803 55.821871,38.4211037 L56.1909677,38.673109 C58.0937419,36.4019548 58.586129,33.4363298 60.594,31.2187606 C62.534129,29.0903059 65.25,27.4334388 66.8634194,25.0809362 C67.2963871,27.2264761 67.2677419,29.0769096 67.71,31.0828564 C66.7912258,32.7810771 58.4134839,40.3049309 56.4563226,43.1639681 C55.9242581,43.9380399 55.5089032,44.8289894 55.1746452,45.662859 C54.7983871,48.3153218 53.8012258,51.2067819 51.2996129,52.9090798 C51.1709032,52.9781968 50.9825806,53.2461223 51.1618065,53.3513511 C52.4763871,52.2398484 54.3605806,51.4306356 54.8570323,49.7823112 C55.521871,47.3278803 56.1965806,44.7231782 57.7798065,42.6908271 C60.066,39.7558777 63.7159355,37.4734628 67.9885161,33.4518617 C68.0965161,34.6419947 68.3314839,36.4941755 68.2552258,37.8901064 C67.3209677,40.7701117 61.9716774,46.8159096 61.6879355,47.1304309 C60.3507097,48.6123697 59.2668387,50.1974016 58.556129,52.0509415 C57.7894839,53.0896383 57.6855484,54.6703989 56.3355484,55.3749654 C54.6665806,56.213883 52.9306452,56.8928218 51.2109677,57.5573936 C51.0452903,57.7175665 50.9010968,57.7857128 50.8569677,57.9852979 C51.7616129,57.9229761 53.7913548,57.1597766 54.8239355,56.8765133 C55.107871,56.7986596 55.3163226,56.7571117 55.4055484,56.7765266 C55.4055484,56.7765266 55.3085806,57.0213484 55.0770968,57.2477261 C53.934,58.3662181 52.6530968,59.4926702 52.3277419,61.102359 L52.6087742,61.0742074 C53.4944516,59.1715479 55.3310323,57.9078324 56.8577419,56.6390691 C58.6937419,54.6748644 59.1543871,51.9191144 60.6185806,49.7124176 C62.8765161,46.764266 65.4898065,44.0733617 68.1474194,41.4162394 C67.6796129,44.2805186 67.5598065,47.043258 66.0545806,49.4029441 C64.9552258,50.5443457 64.4012903,52.1264654 63.2876129,53.2513644 C61.4521935,56.3829867 58.3141935,58.3233112 55.4490968,60.3595452 C54.1716774,61.6135532 53.1292258,63.0698644 52.1105806,64.4034734 C51.9449032,64.7972074 51.6445161,65.1196888 51.6282581,65.6011782 L51.7910323,65.7209681 C53.0307097,63.6237713 54.8514194,61.6585957 56.7919355,60.2304362 C59.1524516,58.316516 62.0398065,57.1223059 63.5922581,54.516633 C64.1982581,53.7942048 64.586129,52.8547181 65.3500645,52.3293511 C65.3874194,52.7054176 63.1664516,56.9790239 62.360129,58.8556676 C59.7766452,61.5644335 55.8656129,62.5196463 54.1169032,65.9838457 L54.2334194,66.1005293 C54.9127742,65.4450824 55.5919355,64.5560745 56.3692258,64.062742 C57.6063871,62.7126303 59.2939355,61.8280878 60.9197419,61.1730293 C60.2148387,62.2159973 59.7952258,63.1688803 59.150129,64.2469894 C57.8479355,65.1724973 55.1221935,67.4855878 55.1221935,67.4855878 C55.1098065,67.6715824 55.1810323,67.7354574 55.278,67.9131037 C55.278,67.9131037 57.0710323,66.132758 58.328129,65.6555399 C57.6259355,67.3679335 56.3941935,69.1077021 55.9215484,70.8664973 L56.2877419,71.2415931 C57.2345806,70.2925931 60.3632903,63.9691622 60.4035484,63.8317048 C60.3673548,65.3235452 59.3235484,69.3950426 59.5527097,70.1572713 C59.5527097,70.1572713 60.831871,69.6212261 61.2983226,62.2565745 C61.9858065,61.2436995 62.5577419,60.098609 63.1213548,59.0773856 C63.6071613,59.9500851 63.2376774,65.0934787 63.2223871,66.9759468 C64.4609032,67.0002154 63.7960645,57.5498218 64.2654194,57.0205718 C64.6128387,55.9851755 65.1807097,54.9020186 65.6527742,53.8592447 C66.141871,55.3860319 66.5429032,58.9614787 66.5429032,58.9614787 C66.723871,59.9852261 66.8610968,65.2088032 66.7765161,66.495234 C66.8208387,66.5292101 67.0933548,66.7080213 67.1727097,66.6820053 C67.5019355,66.1591622 67.2232258,59.7070106 66.9845806,57.200742 C68.2834839,58.9210957 69.1676129,61.0497447 70.0927742,62.7922314 C70.3397419,62.5749787 70.1343871,62.1565878 70.155871,61.8311941 C69.4496129,59.1228165 65.9609032,55.496891 66.7916129,52.0126941 C67.1030323,50.2991356 68.1005806,48.683234 68.1663871,47.021125 C68.8674194,47.9237234 73.11,55.8473298 73.8710323,58.6683138 C74.1133548,59.4625771 74.0903226,60.2861569 74.3278065,61.1578856 C74.7013548,60.6690186 74.463871,59.7972899 74.5180645,59.2092128 C74.118,57.0347447 73.5029032,55.0639388 72.3965806,53.2472872 C72.2119355,52.7525957 71.9963226,52.2557686 71.6972903,51.8466968 C73.1322581,52.2064548 74.1075484,53.4227979 75.1689677,54.2714229 C75.2525806,53.2340851 72.7198065,51.5156729 72.4273548,51.3240479 C71.6512258,50.8151835 71.0374839,50.0952793 70.5454839,49.2916968 C69.9534194,48.3248351 68.8523226,45.597625 68.7958065,45.2590293 C68.6105806,44.1510213 69.3650323,40.3606516 69.3882581,39.537266 C75.5899355,45.8379814 77.7572903,51.2518245 78.530129,53.4198856 L78.6948387,53.2750505 C78.0559355,49.7772633 76.2001935,46.8526037 74.1762581,43.8858138 C76.1490968,44.5610638 77.028,46.7673723 78.6685161,47.7786941 C78.804,47.1339255 74.8660645,43.3088032 73.1276129,42.1351729 C72.0069677,40.3020186 69.9932903,38.8301755 69.4480645,36.7393856 C69.4010323,35.5688617 69.1552258,34.5874388 69.278129,33.4281755 C70.5371613,34.1030372 71.4617419,35.1448404 73.0261935,35.1861941 C74.5414839,35.5044043 76.0385806,36.3351676 77.0550968,37.6320824 L77.4472258,37.2426197 C76.2042581,34.6699521 73.346129,34.5691888 71.240129,33.3246941 C70.6155484,32.5578059 69.0617419,31.9640984 68.7234194,30.905016 C68.6260645,30.6007846 68.2312258,26.6968378 68.1414194,26.1772952 C69.0460645,26.8129388 72.7165161,29.2819309 73.4872258,29.830984 C73.5820645,29.806133 73.5282581,29.6781888 73.5478065,29.6170319 C72.7519355,28.5059176 68.2939355,24.6969096 67.8309677,23.2996197 C67.6767097,22.8338564 67.2669677,17.0602553 67.9978065,14.6801835 C68.7551613,16.6139069 70.2269032,18.2989255 71.3765806,20.1650851 C72.0619355,20.8331516 73.8096774,23.0994521 73.8727742,23.3093271 C74.5656774,25.6156223 75.0679355,28.0591809 76.1192903,30.1860824 C76.2644516,30.4800239 77.4834194,32.6197394 77.6874194,32.9934761 C78.9015484,35.2170638 79.6074194,37.4377394 80.1665806,39.8613005 C80.2786452,40.3474495 80.9810323,45.1767101 80.9020645,47.0859707 C80.9607097,47.1366436 81.0154839,47.24925 81.1112903,47.208867 C81.9286452,46.4204282 80.8734194,39.7372394 80.6041935,38.8789069 C81.7426452,39.4990186 82.6767097,40.8683511 83.7071613,41.7148404 L83.937871,41.5121489 C82.922129,39.7327739 81.4482581,38.311992 80.0134839,36.7694787 C79.4800645,35.2089096 79.1237419,33.7842447 78.2411613,32.3405532 C78.6253548,32.3970505 81.2974839,34.2098191 82.1440645,34.9901037 C83.322,36.0757846 84.308129,37.3662926 84.9516774,38.839883 C85.2164516,39.0596596 85.218,39.744617 85.6337419,39.5543511 C85.0366452,36.8374309 83.0556774,34.6359761 80.8308387,32.8389335 C82.1336129,32.6137207 83.3914839,33.3041144 84.6257419,33.6504761 C84.7494194,33.6586303 84.8905161,33.4982633 84.9770323,33.3639122 C83.2374194,31.7369441 80.7145161,32.4040399 78.7503871,31.2777819 C78.4697419,31.1166383 76.9954839,30.0476543 76.8642581,29.4475399 C77.1710323,29.2654282 81.6462581,29.4061862 83.5023871,29.4980186 L83.3549032,29.1456383 C80.9856774,28.8332527 78.1794194,29.2700878 76.2481935,27.725633 C75.4132258,26.502883 75.6901935,25.1205426 75.3309677,23.7424734 C77.6479355,24.5466383 80.4776129,24.2515319 82.862129,24.9691064 C83.2724516,25.0925851 86.055871,26.5382181 87.0048387,27.2082261 C87.7834839,26.7628484 84.039871,24.6303165 82.7500645,23.9533191 C83.6622581,23.5312394 85.0205806,23.4032952 86.0847097,23.5048351 C86.1524516,23.1825479 85.7641935,23.187984 85.6045161,23.0217926 C84.5659355,22.7660984 81.7639355,23.3745612 81.2047742,23.6176356 C78.8667097,23.5405585 77.0250968,23.4654229 75.1414839,22.3756649 C74.3610968,21.2655213 70.7723226,17.3233271 70.5238065,17.0889894 C71.796,17.3287633 74.7530323,17.9492633 74.9610968,17.9453803 C79.6455484,17.8558777 80.6976774,18.6810106 85.434,20.6599707 C85.497871,20.632984 85.4883871,20.539016 85.4914839,20.4926144 C83.3701935,17.8304441 79.8843871,17.5064096 76.686,16.8276649 C74.7598065,16.6222553 72.963871,17.2660532 71.3092258,16.2382287 L69.8221935,15.0189734 C73.0774839,16.0128218 76.2292258,12.9215824 79.77,14.0587128 C83.9674839,14.881516 86.9417419,18.9697101 87.9598065,22.8352154 C88.989871,28.4344707 89.3518065,31.2962261 86.7056129,34.3486356 C86.8120645,34.853617 88.2911613,37.8468112 87.3646452,38.7195106 L87.3646452,38.7195106 Z M87.3646452,38.7195106" id="Fill-1" sketch:type="MSShapeGroup"></path>
            <path d="M36.6867097,23.0740186 C38.6761935,22.5521463 40.3012258,21.0185638 42.2806452,20.8849894 C42.912,20.9579894 43.3263871,21.4990824 43.851871,21.7672021 C43.893871,21.3653138 43.3138065,20.9843936 43.1413548,20.5372686 C43.2092903,20.2149814 43.7994194,20.2072154 44.136,20.0427713 C44.7282581,20.0041356 45.948,20.3338005 45.948,20.3338005 C46.0256129,20.0256862 46.1837419,19.7307739 46.3887097,19.4638191 C46.6827097,19.0813457 50.5254194,16.3758803 50.5254194,16.3758803 L50.0158065,16.2916197 C49.226129,16.9709468 46.3018065,18.8058484 46.0420645,19.0619309 C45.6483871,19.4500346 45.2386452,19.8367793 44.6053548,19.5135213 C41.628,19.9544335 39.051871,21.1381596 36.4635484,22.7412473 L36.6867097,23.0740186" id="Fill-2" sketch:type="MSShapeGroup"></path>
        </g>
    </g>
</svg>